<?xml version="1.0" standalone="no"?><!DOCTYPE svg PUBLIC "-//W3C//DTD SVG 1.1//EN" "http://www.w3.org/Graphics/SVG/1.1/DTD/svg11.dtd" ><svg xmlns="http://www.w3.org/2000/svg"><metadata></metadata><defs><font id="GesineTodt: Amaranth Regular: 2011" horiz-adv-x="1830"><font-face font-family="Amaranth" font-weight="400" font-stretch="normal" units-per-em="2048" panose-1="2 0 5 3 5 0 0 2 0 4" ascent="1901" descent="-497" x-height="4" bbox="-256 -457 1784 1901" underline-thickness="102" underline-position="-663" unicode-range="U+0000-25fc" /><missing-glyph horiz-adv-x="748" d="M68 0 l0 1365 l544 0 l0 -1365 l-544 0 ZM136 68 l408 0 l0 1229 l-408 0 l0 -1229 Z" /><glyph glyph-name=".null" unicode="" d="" /><glyph glyph-name="nonmarkingreturn" unicode="" d="" /><glyph glyph-name="space" unicode=" " d="" /><glyph glyph-name="exclam" unicode="!" d="M207 129 q0 69 40.5 113.5 q40.5 44.5 112.5 44.5 q71 0 110.5 -42.5 q39.5 -42.5 39.5 -111.5 q0 -67 -41 -111.5 q-41 -44.5 -115 -44.5 q-68 0 -107.5 44 q-39.5 44 -39.5 108 ZM260 451 l0 935 l260 0 l-59 -935 l-201 0 Z" /><glyph glyph-name="quotedbl" unicode="&quot;" d="M102 1386 l197 0 l-16 -497 l-164 0 l-17 497 ZM449 1386 l196 0 l-16 -497 l-164 0 l-16 497 Z" /><glyph glyph-name="numbersign" unicode="#" d="M82 293 l20 160 l215 0 l41 321 l-229 0 l21 160 l229 0 l37 280 l162 0 l-37 -280 l254 0 l36 280 l162 0 l-37 -280 l203 0 l-20 -160 l-203 0 l-41 -321 l217 0 l-20 -160 l-218 0 l-36 -293 l-162 0 l37 293 l-254 0 l-37 -293 l-162 0 l37 293 l-215 0 ZM479 453 l254 0 l41 321 l-254 0 l-41 -321 Z" /><glyph glyph-name="dollar" unicode="$" d="M102 141 l88 181 q33 -20 75 -42 q42 -22 113 -47.5 q71 -25.5 120 -25.5 q204 0 204 170 q0 23 -5.5 42 q-5.5 19 -11.5 33 q-6 14 -23 28 q-17 14 -27 21.5 q-10 7.5 -37.5 19.5 q-27.5 12 -40.5 17 q-13 5 -49 19 q-91 35 -153.5 69.5 q-62.5 34.5 -112 79.5 q-49.5 45 -73.5 103 q-24 58 -24 131 q0 117 86 205.5 q86 88.5 226 114.5 l0 161 l168 0 l0 -157 q93 -10 175 -40 q82 -30 122 -53 l-82 -167 q-4 2 -27.5 13 q-23.5 11 -39.5 18 q-16 7 -45 18 q-29 11 -53 17.5 q-24 6.5 -55 11.5 q-31 5 -59 5 q-77 0 -127.5 -29 q-50.5 -29 -50.5 -91 q0 -78 54.5 -124 q54.5 -46 180.5 -93 q165 -65 242.5 -143.5 q77.5 -78.5 77.5 -213.5 q0 -128 -82 -229.5 q-82 -101.5 -231 -132.5 l0 -201 l-168 0 l0 193 q-187 17 -355 118 Z" /><glyph glyph-name="percent" unicode="%" d="M82 840 q0 167 80 268.5 q80 101.5 233 101.5 q303 0 303 -356 q0 -164 -80.5 -266.5 q-80.5 -102.5 -234.5 -102.5 q-153 0 -227 93 q-74 93 -74 262 ZM283 852 q0 -50 4.5 -87 q4.5 -37 16 -69 q11.5 -32 34.5 -48.5 q23 -16.5 57 -16.5 q31 0 51.5 15.5 q20.5 15.5 31.5 45.5 q11 30 15.5 66 q4.5 36 4.5 86 q0 105 -24.5 163 q-24.5 58 -90.5 58 q-57 0 -78.5 -55 q-21.5 -55 -21.5 -158 ZM485 0 l562 1202 l192 0 l-561 -1202 l-193 0 ZM1022 348 q0 167 79.5 269 q79.5 102 233.5 102 q301 0 301 -357 q0 -165 -79.5 -266.5 q-79.5 -101.5 -233.5 -101.5 q-153 0 -227 92.5 q-74 92.5 -74 261.5 ZM1223 360 q0 -50 4.5 -87 q4.5 -37 16 -69 q11.5 -32 34.5 -48.5 q23 -16.5 57 -16.5 q31 0 51.5 15.5 q20.5 15.5 31.5 45.5 q11 30 15.5 66 q4.5 36 4.5 86 q0 105 -24.5 163 q-24.5 58 -90.5 58 q-57 0 -78.5 -55 q-21.5 -55 -21.5 -158 Z" /><glyph glyph-name="ampersand" unicode="&amp;" d="M72 346 q0 71 21 136 q21 65 56 114 q35 49 70.5 84 q35.5 35 75.5 63 q-47 92 -47 185 q0 122 87 206.5 q87 84.5 263 84.5 q189 0 307 -148 l-119 -129 q-2 1 -22 18 q-20 17 -37.5 29.5 q-17.5 12.5 -49 24.5 q-31.5 12 -63.5 12 q-62 0 -94.5 -28.5 q-32.5 -28.5 -32.5 -79.5 q0 -93 91 -206.5 q91 -113.5 268 -269.5 q39 62 82 162 l172 -69 q-68 -149 -113 -218 l199 -172 l-117 -155 l-209 170 q-179 -172 -418 -172 q-70 0 -135.5 24.5 q-65.5 24.5 -118 69 q-52.5 44.5 -84.5 113.5 q-32 69 -32 151 ZM313 377 q0 -88 52 -138.5 q52 -50.5 145 -50.5 q107 0 205 95 q-224 190 -320 311 q-82 -91 -82 -217 Z" /><glyph glyph-name="quotesingle" unicode="&#39;" d="M102 1386 l197 0 l-16 -497 l-164 0 l-17 497 Z" /><glyph glyph-name="parenleft" unicode="(" d="M143 551 q0 151 31 290 q31 139 77.5 238.5 q46.5 99.5 107.5 185 q61 85.5 113 136.5 q52 51 103 86 l127 -139 q-40 -34 -80 -79 q-40 -45 -86 -118.5 q-46 -73.5 -80.5 -157.5 q-34.5 -84 -57.5 -201 q-23 -117 -23 -243 q0 -128 23 -245 q23 -117 57 -201 q34 -84 80 -158 q46 -74 86 -118.5 q40 -44.5 81 -78.5 l-127 -139 q-51 35 -103 85.5 q-52 50.5 -113.5 136.5 q-61.5 86 -107.5 186 q-46 100 -77 240.5 q-31 140.5 -31 293.5 Z" /><glyph glyph-name="parenright" unicode=")" d="M145 -252 q41 34 81 78.5 q40 44.5 86.5 118.5 q46.5 74 80.5 158 q34 84 57 201 q23 117 23 245 q0 126 -23 243 q-23 117 -57.5 201 q-34.5 84 -81 157.5 q-46.5 73.5 -86 118.5 q-39.5 45 -80.5 79 l125 139 q51 -35 103 -86 q52 -51 113 -136.5 q61 -85.5 107.5 -185 q46.5 -99.5 77.5 -238.5 q31 -139 31 -290 q0 -153 -31 -293.5 q-31 -140.5 -77 -240.5 q-46 -100 -107.5 -186 q-61.5 -86 -113.5 -136.5 q-52 -50.5 -103 -85.5 l-125 139 Z" /><glyph glyph-name="asterisk" unicode="*" d="M102 1061 l62 186 l211 -88 l-19 227 l197 0 l-21 -233 l226 94 l61 -186 l-231 -55 l155 -179 l-159 -116 l-125 202 l-127 -204 l-160 116 l158 183 l-228 53 Z" /><glyph glyph-name="plus" unicode="+" d="M123 526 l0 183 l305 0 l0 311 l193 0 l0 -311 l305 0 l0 -183 l-305 0 l0 -323 l-193 0 l0 323 l-305 0 Z" /><glyph glyph-name="comma" unicode="," d="M82 -182 q135 99 135 233 q0 45 -19 113 q-19 68 -20 88 q5 5 14.5 11 q9.5 6 43.5 16 q34 10 77 10 q68 0 103 -41.5 q35 -41.5 35 -110.5 q0 -154 -79.5 -265 q-79.5 -111 -201.5 -173 l-88 119 Z" /><glyph glyph-name="hyphen" unicode="-" d="M102 569 l0 170 l580 0 l0 -170 l-580 0 Z" /><glyph glyph-name="period" unicode="." d="M123 129 q0 69 41 113.5 q41 44.5 115 44.5 q69 0 108 -42.5 q39 -42.5 39 -111.5 q0 -67 -41 -111.5 q-41 -44.5 -113 -44.5 q-69 0 -109 44 q-40 44 -40 108 Z" /><glyph glyph-name="slash" unicode="/" d="M-20 -258 l651 1751 l243 0 l-651 -1751 l-243 0 Z" /><glyph glyph-name="zero" unicode="0" d="M92 637 q0 157 28.5 279.5 q28.5 122.5 87.5 213 q59 90.5 155.5 138 q96.5 47.5 226.5 47.5 q247 0 359 -163 q112 -163 112 -482 q0 -156 -28.5 -279 q-28.5 -123 -87.5 -214.5 q-59 -91.5 -155.5 -140 q-96.5 -48.5 -226.5 -48.5 q-247 0 -359 163.5 q-112 163.5 -112 485.5 ZM346 659 q0 -89 5.5 -156.5 q5.5 -67.5 21 -133.5 q15.5 -66 41.5 -108.5 q26 -42.5 70 -68.5 q44 -26 104 -26 q63 0 106.5 33.5 q43.5 33.5 67 99.5 q23.5 66 33.5 149 q10 83 10 197 q0 89 -5 156.5 q-5 67.5 -20.5 133.5 q-15.5 66 -41.5 108 q-26 42 -70.5 68 q-44.5 26 -104.5 26 q-62 0 -105 -33 q-43 -33 -67.5 -98 q-24.5 -65 -34.5 -148.5 q-10 -83.5 -10 -198.5 Z" /><glyph glyph-name="one" unicode="1" d="M0 1032 q87 36 135 59 q48 23 125 79 q77 56 150 135 l174 0 l0 -1305 l-234 0 l0 1032 q-146 -136 -258 -168 l-92 168 Z" /><glyph glyph-name="two" unicode="2" d="M72 0 l2 193 q25 28 143.5 151.5 q118.5 123.5 136.5 142.5 q170 196 225.5 287 q55.5 91 55.5 191 q0 77 -44 124.5 q-44 47.5 -114 47.5 q-31 0 -59.5 -4.5 q-28.5 -4.5 -63.5 -16 q-35 -11.5 -55.5 -19.5 q-20.5 -8 -69 -29 q-48.5 -21 -69.5 -30 l-80 162 q256 115 446 115 q76 0 138.5 -18 q62.5 -18 114.5 -57 q52 -39 81 -110 q29 -71 29 -169 q0 -124 -79 -251 q-79 -127 -253 -317 l-188 -207 l555 0 l0 -186 l-852 0 Z" /><glyph glyph-name="three" unicode="3" d="M72 94 l69 170 q82 -37 117 -52 q35 -15 90.5 -30.5 q55.5 -15.5 100.5 -15.5 q101 0 172 61 q71 61 71 174 q0 92 -54.5 151.5 q-54.5 59.5 -129.5 59.5 q-26 0 -54.5 -2 q-28.5 -2 -52.5 -5.5 q-24 -3.5 -42.5 -7 q-18.5 -3.5 -33.5 -6.5 q-15 -3 -16 -3 l-63 160 q22 8 72 24.5 q50 16.5 72 24 q22 7.5 62.5 23.5 q40.5 16 59 27.5 q18.5 11.5 45.5 30 q27 18.5 39 36.5 q12 18 21.5 42 q9.5 24 9.5 52 q0 62 -40.5 95.5 q-40.5 33.5 -113.5 33.5 q-22 0 -41.5 -1.5 q-19.5 -1.5 -41.5 -6 q-22 -4.5 -36 -8 q-14 -3.5 -40.5 -13 q-26.5 -9.5 -39 -14 q-12.5 -4.5 -47 -18 q-34.5 -13.5 -49.5 -19.5 l-80 157 q117 53 204.5 77 q87.5 24 203.5 24 q175 0 269.5 -77.5 q94.5 -77.5 94.5 -207.5 q0 -181 -208 -278 q125 -37 196.5 -133.5 q71.5 -96.5 71.5 -212.5 q0 -65 -14.5 -123.5 q-14.5 -58.5 -50 -113 q-35.5 -54.5 -88.5 -94 q-53 -39.5 -135.5 -63.5 q-82.5 -24 -186.5 -24 q-151 0 -383 106 Z" /><glyph glyph-name="four" unicode="4" d="M41 360 l0 132 l373 813 l239 0 l-358 -768 l319 0 l0 417 l232 41 l0 -458 l198 0 l-32 -177 l-166 0 l0 -360 l-232 0 l0 360 l-573 0 Z" /><glyph glyph-name="five" unicode="5" d="M92 94 l70 170 q10 -4 44 -19.5 q34 -15.5 44 -19.5 q10 -4 38 -15.5 q28 -11.5 39.5 -15.5 q11.5 -4 34.5 -11 q23 -7 38 -9.5 q15 -2.5 34 -5 q19 -2.5 37 -2.5 q116 0 167.5 63 q51.5 63 51.5 195 q0 105 -55.5 163 q-55.5 58 -149.5 58 q-38 0 -74 -4 q-36 -4 -61 -9.5 q-25 -5.5 -48.5 -13 q-23.5 -7.5 -35.5 -13 q-12 -5.5 -24 -11.5 l-13 -6 l-96 71 l70 646 l671 0 l-32 -187 l-434 0 l-43 -330 q56 39 206 39 q167 0 269 -116 q102 -116 102 -289 q0 -84 -23.5 -159 q-23.5 -75 -72 -138.5 q-48.5 -63.5 -133.5 -101 q-85 -37.5 -197 -37.5 q-186 0 -424 108 Z" /><glyph glyph-name="six" unicode="6" d="M92 651 q0 108 19 203.5 q19 95.5 62 180 q43 84.5 106.5 145.5 q63.5 61 157.5 96 q94 35 210 35 q130 0 260 -56 l-63 -161 q-106 36 -205 36 q-69 0 -121.5 -22 q-52.5 -22 -84.5 -58 q-32 -36 -52.5 -91.5 q-20.5 -55.5 -28.5 -113 q-8 -57.5 -10 -130.5 q111 131 274 131 q179 0 282 -113 q103 -113 103 -313 q0 -190 -119.5 -311 q-119.5 -121 -332.5 -121 q-457 0 -457 663 ZM342 573 q8 -215 59.5 -313 q51.5 -98 165.5 -98 q99 0 148 68.5 q49 68.5 49 187.5 q0 252 -193 252 q-71 0 -137 -35.5 q-66 -35.5 -92 -61.5 Z" /><glyph glyph-name="seven" unicode="7" d="M10 1305 l854 0 l0 -148 l-411 -1157 l-252 0 l397 1118 l-555 0 l-33 187 Z" /><glyph glyph-name="eight" unicode="8" d="M102 326 q0 59 20.5 111.5 q20.5 52.5 59.5 95.5 q39 43 78.5 74 q39.5 31 93.5 65 q-98 56 -157.5 140 q-59.5 84 -59.5 187 q0 130 118 223 q118 93 290 93 q162 0 272.5 -88.5 q110.5 -88.5 110.5 -218.5 q0 -174 -211 -322 q106 -58 180 -151 q74 -93 74 -197 q0 -156 -124 -253 q-124 -97 -312 -97 q-121 0 -217 36 q-96 36 -156 114 q-60 78 -60 188 ZM346 334 q0 -78 55 -131 q55 -53 150 -53 q75 0 122.5 53 q47.5 53 47.5 127 q0 69 -53 136 q-53 67 -127 122 q-90 -51 -142.5 -111.5 q-52.5 -60.5 -52.5 -142.5 ZM379 1010 q0 -145 158 -234 q70 39 108.5 91.5 q38.5 52.5 38.5 138.5 q0 64 -39.5 105.5 q-39.5 41.5 -107.5 41.5 q-72 0 -115 -37.5 q-43 -37.5 -43 -105.5 Z" /><glyph glyph-name="nine" unicode="9" d="M72 879 q0 124 51 220.5 q51 96.5 155.5 154 q104.5 57.5 247.5 57.5 q455 0 455 -664 q0 -108 -19 -203.5 q-19 -95.5 -61.5 -179.5 q-42.5 -84 -106 -145 q-63.5 -61 -157 -96 q-93.5 -35 -209.5 -35 q-134 0 -262 55 l63 162 q113 -37 207 -37 q69 0 120.5 22 q51.5 22 83.5 58 q32 36 52.5 91 q20.5 55 28.5 112 q8 57 10 129 q-108 -127 -274 -127 q-179 0 -282 113 q-103 113 -103 313 ZM309 881 q0 -115 46 -183.5 q46 -68.5 147 -68.5 q23 0 46.5 4.5 q23.5 4.5 44.5 12 q21 7.5 39.5 15.5 q18.5 8 36 19 q17.5 11 28 17.5 q10.5 6.5 22 15 q11.5 8.5 12.5 8.5 q-6 215 -58.5 315.5 q-52.5 100.5 -164.5 100.5 q-100 0 -149.5 -69 q-49.5 -69 -49.5 -187 Z" /><glyph glyph-name="colon" unicode=":" d="M186 129 q0 69 40.5 113.5 q40.5 44.5 113.5 44.5 q70 0 109.5 -42.5 q39.5 -42.5 39.5 -111.5 q0 -68 -40.5 -112 q-40.5 -44 -114.5 -44 q-68 0 -108 44 q-40 44 -40 108 ZM186 885 q0 70 40.5 114.5 q40.5 44.5 113.5 44.5 q71 0 110 -42 q39 -42 39 -111 q0 -68 -40.5 -112 q-40.5 -44 -114.5 -44 q-68 0 -108 43.5 q-40 43.5 -40 106.5 Z" /><glyph glyph-name="semicolon" unicode=";" d="M123 -182 q135 99 135 233 q0 45 -19 113 q-19 68 -20 88 q5 5 14.5 11 q9.5 6 43 16 q33.5 10 75.5 10 q69 0 104.5 -41.5 q35.5 -41.5 35.5 -110.5 q0 -154 -80.5 -265 q-80.5 -111 -202.5 -173 l-86 119 ZM184 885 q0 70 41 114.5 q41 44.5 115 44.5 q69 0 108 -42 q39 -42 39 -111 q0 -67 -40.5 -111.5 q-40.5 -44.5 -112.5 -44.5 q-69 0 -109.5 43.5 q-40.5 43.5 -40.5 106.5 Z" /><glyph glyph-name="less" unicode="&lt;" d="M61 530 l0 168 l695 338 l82 -190 l-398 -178 q-46 -22 -125 -54 q93 -37 127 -53 l408 -186 l-82 -191 l-707 346 Z" /><glyph glyph-name="equal" unicode="=" d="M143 354 l0 181 l744 0 l0 -181 l-744 0 ZM143 713 l0 180 l744 0 l0 -180 l-744 0 Z" /><glyph glyph-name="greater" unicode="&gt;" d="M82 375 l407 186 q82 36 127 53 q-59 22 -124 54 l-398 178 l82 190 l694 -338 l0 -168 l-706 -346 l-82 191 Z" /><glyph glyph-name="question" unicode="?" d="M82 1305 q70 32 116 50.5 q46 18.5 116 35 q70 16.5 135 16.5 q389 0 389 -307 q0 -46 -14 -94 q-14 -48 -29 -81.5 q-15 -33.5 -51 -84.5 q-36 -51 -53 -73 q-17 -22 -62 -77 q-138 -171 -172 -287 l-172 48 q0 79 30 157 q30 78 72.5 139 q42.5 61 85 116.5 q42.5 55.5 72.5 109.5 q30 54 30 98 q0 74 -43 116 q-43 42 -114 42 q-22 0 -42.5 -3 q-20.5 -3 -35.5 -6.5 q-15 -3.5 -39.5 -13.5 q-24.5 -10 -37.5 -16 q-13 -6 -48 -22 q-35 -16 -53 -25 l-80 162 ZM229 129 q0 69 40.5 113.5 q40.5 44.5 113.5 44.5 q70 0 109.5 -42.5 q39.5 -42.5 39.5 -111.5 q0 -68 -40.5 -112 q-40.5 -44 -114.5 -44 q-68 0 -108 44 q-40 44 -40 108 Z" /><glyph glyph-name="at" unicode="@" d="M113 408 q0 161 51 301 q51 140 137.5 239.5 q86.5 99.5 201 171 q114.5 71.5 242.5 106 q128 34.5 261 34.5 q115 0 220 -26.5 q105 -26.5 197 -82.5 q92 -56 160 -136.5 q68 -80.5 107 -195.5 q39 -115 39 -252 q0 -60 -12 -132 q-12 -72 -40 -152 q-28 -80 -68 -145 q-40 -65 -102.5 -107.5 q-62.5 -42.5 -136.5 -42.5 q-201 0 -262 235 q-28 -118 -99.5 -176.5 q-71.5 -58.5 -191.5 -58.5 q-169 0 -253.5 121 q-84.5 121 -84.5 337 q0 211 123 348.5 q123 137.5 318 137.5 q65 0 155.5 -13 q90.5 -13 148.5 -27 l58 -13 l0 -435 q0 -44 1 -76.5 q1 -32.5 5 -68.5 q4 -36 11 -61 q7 -25 18 -46 q11 -21 28.5 -31.5 q17.5 -10.5 40.5 -10.5 q46 0 81.5 48.5 q35.5 48.5 53.5 118 q18 69.5 26.5 131 q8.5 61.5 8.5 103.5 q0 110 -30.5 201.5 q-30.5 91.5 -83.5 155.5 q-53 64 -125.5 108 q-72.5 44 -156.5 65 q-84 21 -177 21 q-131 0 -253.5 -45 q-122.5 -45 -222 -128.5 q-99.5 -83.5 -160 -217 q-60.5 -133.5 -60.5 -295.5 q0 -94 14.5 -175 q14.5 -81 53 -159 q38.5 -78 99.5 -132.5 q61 -54.5 159.5 -88 q98.5 -33.5 226.5 -33.5 q72 0 160.5 20 q88.5 20 133.5 36 q45 16 58 22 l55 -142 q-10 -7 -60 -27 q-50 -20 -152 -44.5 q-102 -24.5 -193 -24.5 q-115 0 -216.5 21.5 q-101.5 21.5 -197.5 75 q-96 53.5 -164 135.5 q-68 82 -109.5 212 q-41.5 130 -41.5 296 ZM709 465 q0 -71 5.5 -124 q5.5 -53 20 -101 q14.5 -48 44 -73.5 q29.5 -25.5 73.5 -25.5 q87 0 150 104.5 q63 104.5 63 239.5 l0 275 q-77 20 -123 20 q-117 0 -175 -85 q-58 -85 -58 -230 Z" /><glyph glyph-name="A" unicode="a" d="M-10 0 l532 1386 l193 0 l534 -1386 l-260 0 l-127 362 l-500 0 l-131 -362 l-241 0 ZM428 543 l371 0 q-106 302 -185 571 q-101 -329 -186 -571 Z" /><glyph glyph-name="B" unicode="b" d="M143 0 l0 1386 q12 0 180.5 2.5 q168.5 2.5 231.5 2.5 q234 0 359.5 -94.5 q125.5 -94.5 125.5 -266.5 q0 -98 -55.5 -178.5 q-55.5 -80.5 -153.5 -130.5 q121 -46 186.5 -132.5 q65.5 -86.5 65.5 -199.5 q0 -182 -136.5 -286.5 q-136.5 -104.5 -399.5 -104.5 q-86 0 -239.5 1 q-153.5 1 -164.5 1 ZM387 174 l176 0 q133 0 196.5 59.5 q63.5 59.5 63.5 159.5 q0 46 -14 85 q-14 39 -44.5 72.5 q-30.5 33.5 -87.5 53 q-57 19.5 -136 19.5 q-117 0 -154 -2 l0 -447 ZM387 797 l158 0 q123 0 181 56 q58 56 58 148 q0 43 -13 79 q-13 36 -41 68 q-28 32 -81 50.5 q-53 18.5 -125 18.5 q-88 0 -137 -3 l0 -417 Z" /><glyph glyph-name="C" unicode="c" d="M96 676 q0 219 64.5 380.5 q64.5 161.5 202 255 q137.5 93.5 337.5 93.5 q201 0 330 -148 l-125 -149 q-103 109 -229 109 q-85 0 -147.5 -40 q-62.5 -40 -98.5 -112 q-36 -72 -53 -163 q-17 -91 -17 -204 q0 -114 16 -203.5 q16 -89.5 52.5 -164 q36.5 -74.5 103.5 -114.5 q67 -40 162 -40 q43 0 90.5 8 q47.5 8 78.5 17 q31 9 59 18 q28 9 30 10 l58 -172 l-8 -3 q-9 -4 -26.5 -10 q-17.5 -6 -41 -13.5 q-23.5 -7.5 -55.5 -15 q-32 -7.5 -67 -13.5 q-35 -6 -78.5 -10 q-43.5 -4 -86.5 -4 q-272 0 -411.5 176 q-139.5 176 -139.5 512 Z" /><glyph glyph-name="D" unicode="d" d="M143 0 l0 1386 q10 0 169 2.5 q159 2.5 233 2.5 q684 0 684 -689 q0 -706 -711 -706 q-100 0 -234.5 2 q-134.5 2 -140.5 2 ZM387 180 q31 -2 162 -2 q212 0 314 125.5 q102 125.5 102 376.5 q0 528 -449 528 q-35 0 -78 -1 q-43 -1 -51 -1 l0 -1026 Z" /><glyph glyph-name="E" unicode="e" d="M143 0 l0 1386 l824 0 l0 -184 l-580 0 l0 -387 l477 0 l-30 -186 l-447 0 l0 -445 l610 0 l0 -184 l-854 0 Z" /><glyph glyph-name="F" unicode="f" d="M143 0 l0 1386 l824 0 l0 -184 l-580 0 l0 -399 l477 0 l-30 -185 l-447 0 l0 -618 l-244 0 Z" /><glyph glyph-name="G" unicode="g" d="M88 674 q0 162 37 294.5 q37 132.5 110 230.5 q73 98 190 152 q117 54 269 54 q126 0 222 -41 q96 -41 155 -104 l-119 -156 q-52 52 -129 82.5 q-77 30.5 -157 30.5 q-85 0 -147 -40.5 q-62 -40.5 -98 -113.5 q-36 -73 -52.5 -164.5 q-16.5 -91.5 -16.5 -204.5 q0 -244 65.5 -382 q65.5 -138 205.5 -138 q103 0 188.5 86.5 q85.5 86.5 85.5 224.5 l0 187 l240 0 l0 -617 q0 -54 -7.5 -102 q-7.5 -48 -18.5 -85.5 q-11 -37.5 -31.5 -73 q-20.5 -35.5 -37.5 -60 q-17 -24.5 -47 -51 q-30 -26.5 -50.5 -42 q-20.5 -15.5 -56.5 -36.5 q-36 -21 -55.5 -31 q-19.5 -10 -56.5 -29 q-3 -1 -4 -2 l-94 162 q51 25 91 55.5 q40 30.5 65 58 q25 27.5 43 65 q18 37.5 26.5 62.5 q8.5 25 13 66 q4.5 41 5 61 q0.5 20 0.5 60 l0 29 q-45 -86 -136.5 -132 q-91.5 -46 -210.5 -46 q-126 0 -220 49 q-94 49 -152 141 q-58 92 -86.5 217 q-28.5 125 -28.5 283 Z" /><glyph glyph-name="H" unicode="h" d="M143 0 l0 1386 l244 0 l0 -577 l571 0 l0 577 l244 0 l0 -1386 l-244 0 l0 631 l-571 0 l0 -631 l-244 0 Z" /><glyph glyph-name="I" unicode="i" d="M143 0 l0 1386 l244 0 l0 -1386 l-244 0 Z" /><glyph glyph-name="J" unicode="j" d="M-72 -295 q62 30 105 67 q43 37 64 66.5 q21 29.5 32 69.5 q11 40 12.5 61.5 q1.5 21.5 1.5 57.5 l0 1359 l244 0 l0 -1335 q0 -53 -7 -100.5 q-7 -47.5 -18 -84.5 q-11 -37 -30.5 -71.5 q-19.5 -34.5 -37.5 -59.5 q-18 -25 -46.5 -50.5 q-28.5 -25.5 -49.5 -42 q-21 -16.5 -55 -36 q-34 -19.5 -54.5 -31 q-20.5 -11.5 -55.5 -28.5 q-5 -3 -8 -4 l-97 162 Z" /><glyph glyph-name="K" unicode="k" d="M143 0 l0 1386 l244 0 l0 -1386 l-244 0 ZM414 750 l0 14 q181 66 286 220 q105 154 164 402 l240 0 q-32 -150 -71.5 -259.5 q-39.5 -109.5 -89.5 -185 q-50 -75.5 -100.5 -124.5 q-50.5 -49 -121.5 -96 l504 -721 l-283 0 l-528 750 Z" /><glyph glyph-name="L" unicode="l" d="M143 0 l0 1386 l244 0 l0 -1202 l518 0 l0 -184 l-762 0 Z" /><glyph glyph-name="M" unicode="m" d="M123 0 l82 1391 l190 0 l350 -869 q81 -197 86 -211 q16 41 49 119.5 q33 78.5 38 91.5 l352 869 l186 0 l82 -1391 l-227 0 l-23 530 l-10 340 q-84 -231 -127 -338 l-229 -532 l-172 0 l-232 526 q-44 99 -137 353 q-3 -208 -8 -342 l-21 -537 l-229 0 Z" /><glyph glyph-name="N" unicode="n" d="M143 0 l0 1391 l191 0 l481 -721 q38 -55 166 -254 q-12 176 -12 246 l-6 724 l243 0 l0 -1388 l-202 0 l-467 729 q-11 17 -172 272 q16 -176 16 -274 l6 -725 l-244 0 Z" /><glyph glyph-name="O" unicode="o" d="M92 676 q0 163 36.5 295 q36.5 132 109.5 229.5 q73 97.5 190 151 q117 53.5 270 53.5 q151 0 262 -48 q111 -48 180 -140.5 q69 -92.5 102.5 -219.5 q33.5 -127 33.5 -292 q0 -162 -36.5 -292 q-36.5 -130 -109.5 -225.5 q-73 -95.5 -189.5 -147.5 q-116.5 -52 -268.5 -52 q-580 0 -580 688 ZM356 698 q0 -89 8.5 -161 q8.5 -72 31.5 -141.5 q23 -69.5 60.5 -116 q37.5 -46.5 99.5 -75 q62 -28.5 144 -28.5 q314 0 314 508 q0 89 -8.5 162 q-8.5 73 -31.5 144 q-23 71 -60.5 119.5 q-37.5 48.5 -99.5 78 q-62 29.5 -144 29.5 q-314 0 -314 -519 Z" /><glyph glyph-name="P" unicode="p" d="M143 0 l0 1386 q12 0 180.5 2.5 q168.5 2.5 231.5 2.5 q243 0 365 -109.5 q122 -109.5 122 -308.5 q0 -195 -132.5 -312.5 q-132.5 -117.5 -379.5 -117.5 l-143 0 l0 -543 l-244 0 ZM387 725 l158 0 q123 0 181 65 q58 65 58 175 q0 51 -13 93.5 q-13 42.5 -41.5 79.5 q-28.5 37 -81 58 q-52.5 21 -124.5 21 q-88 0 -137 -3 l0 -489 Z" /><glyph glyph-name="Q" unicode="q" d="M88 686 q0 157 38.5 287 q38.5 130 113.5 227 q75 97 193.5 151 q118.5 54 271.5 54 q297 0 437 -183 q140 -183 140 -520 q0 -185 -46.5 -342 q-46.5 -157 -126 -265 q-79.5 -108 -182.5 -176 q-103 -68 -220 -89 q88 -66 202 -66 q136 0 351 105 l83 -172 q-201 -135 -401 -135 q-137 0 -284 73 q-147 73 -271 211 l45 136 q60 -11 94 -11 q102 0 192 48 q90 48 157 136 q67 88 106 223.5 q39 135.5 39 301.5 q0 89 -8.5 162.5 q-8.5 73.5 -31.5 145 q-23 71.5 -60.5 120.5 q-37.5 49 -99.5 79 q-62 30 -144 30 q-86 0 -151.5 -41 q-65.5 -41 -104 -113.5 q-38.5 -72.5 -57.5 -162 q-19 -89.5 -19 -195.5 q0 -198 48.5 -302 q48.5 -104 176.5 -133 l-26 -174 q-96 6 -174 44 q-78 38 -129 96 q-51 58 -86 133.5 q-35 75.5 -50.5 154.5 q-15.5 79 -15.5 162 Z" /><glyph glyph-name="R" unicode="r" d="M143 0 l0 1386 q12 0 180.5 2.5 q168.5 2.5 231.5 2.5 q487 0 487 -379 q0 -124 -62 -214 q-62 -90 -192 -130 q32 -18 60.5 -43 q28.5 -25 56.5 -66 q28 -41 48.5 -74 q20.5 -33 51 -99.5 q30.5 -66.5 48.5 -107.5 q18 -41 57 -133.5 q39 -92.5 61 -144.5 l-264 0 q-1 2 -3 7 q-44 103 -64.5 150 q-20.5 47 -55 122 q-34.5 75 -53 106 q-18.5 31 -48 78 q-29.5 47 -52 64.5 q-22.5 17.5 -53 38.5 q-30.5 21 -62.5 27.5 q-32 6.5 -70 6.5 l-59 0 l0 -600 l-244 0 ZM387 778 l158 0 q115 0 177 52 q62 52 62 151 q0 103 -60.5 169.5 q-60.5 66.5 -199.5 66.5 l-137 0 l0 -439 Z" /><glyph glyph-name="S" unicode="s" d="M61 121 l86 188 q-4 0 58 -32.5 q62 -32.5 147 -65.5 q85 -33 137 -33 q106 0 161 53 q55 53 55 150 q0 85 -48.5 130.5 q-48.5 45.5 -156.5 88.5 q-102 42 -167 78.5 q-65 36.5 -120.5 87.5 q-55.5 51 -81 117 q-25.5 66 -25.5 153 q0 153 124.5 261 q124.5 108 312.5 108 q124 0 239.5 -38.5 q115.5 -38.5 161.5 -70.5 l-100 -176 q1 0 -16.5 9.5 q-17.5 9.5 -48 23.5 q-30.5 14 -67 28 q-36.5 14 -79 23.5 q-42.5 9.5 -78.5 9.5 q-79 0 -130.5 -36.5 q-51.5 -36.5 -51.5 -106.5 q0 -90 57.5 -148.5 q57.5 -58.5 187.5 -109.5 q70 -28 120 -54 q50 -26 96 -61 q46 -35 73.5 -75.5 q27.5 -40.5 43.5 -95 q16 -54.5 16 -121.5 q0 -63 -19 -123.5 q-19 -60.5 -57.5 -114 q-38.5 -53.5 -92.5 -93.5 q-54 -40 -129.5 -63.5 q-75.5 -23.5 -162.5 -23.5 q-223 0 -445 133 Z" /><glyph glyph-name="T" unicode="t" d="M20 1202 l0 184 l967 0 l-31 -184 l-344 0 l0 -1202 l-241 0 l0 1202 l-351 0 Z" /><glyph glyph-name="U" unicode="u" d="M123 510 l0 876 l242 0 l0 -858 q0 -352 297 -352 q136 0 204 91.5 q68 91.5 68 260.5 l0 858 l244 0 l0 -876 q0 -111 -28.5 -202 q-28.5 -91 -90 -164.5 q-61.5 -73.5 -169.5 -114.5 q-108 -41 -255 -41 q-112 0 -200.5 27.5 q-88.5 27.5 -146.5 74.5 q-58 47 -95.5 114.5 q-37.5 67.5 -53.5 142.5 q-16 75 -16 163 Z" /><glyph glyph-name="V" unicode="v" d="M-16 1386 l260 0 l172 -495 q70 -203 184 -563 q84 276 184 559 l179 499 l247 0 l-518 -1386 l-190 0 l-518 1386 Z" /><glyph glyph-name="W" unicode="w" d="M20 1386 l244 0 l180 -694 q49 -189 68 -291 q23 98 82 287 l217 698 l182 0 l217 -698 q60 -196 82 -301 q16 123 64 301 l180 698 l248 0 l-385 -1386 l-180 0 l-275 842 q-32 90 -49 164 q-21 -90 -43 -164 l-266 -842 l-180 0 l-386 1386 Z" /><glyph glyph-name="X" unicode="x" d="M0 0 l430 727 l-389 659 l276 0 l195 -350 q82 -159 84 -164 q25 48 86 162 l197 352 l274 0 l-391 -661 l430 -725 l-279 0 l-229 410 q-59 110 -88 168 l-86 -168 l-229 -410 l-281 0 Z" /><glyph glyph-name="Y" unicode="y" d="M0 1386 l264 0 l291 -628 l297 628 l258 0 l-436 -866 l0 -520 l-244 0 l0 530 l-430 856 Z" /><glyph glyph-name="Z" unicode="z" d="M82 0 l0 145 l602 1057 q-82 -6 -176 -6 l-391 0 l-33 190 l901 0 l0 -145 l-590 -1055 q94 4 152 4 l463 0 l0 -190 l-928 0 Z" /><glyph glyph-name="bracketleft" unicode="[" d="M164 -381 l0 1856 l467 0 l0 -181 l-244 0 l0 -1495 l244 0 l0 -180 l-467 0 Z" /><glyph glyph-name="backslash" unicode="\" d="M-20 1493 l243 0 l651 -1751 l-243 0 l-651 1751 Z" /><glyph glyph-name="bracketright" unicode="]" d="M125 -201 l244 0 l0 1495 l-244 0 l0 181 l467 0 l0 -1856 l-467 0 l0 180 Z" /><glyph glyph-name="asciicircum" unicode="^" d="M102 645 l367 741 l170 0 l367 -741 l-220 -24 l-180 395 l-51 125 q-12 -31 -53 -125 l-189 -410 l-211 39 Z" /><glyph glyph-name="underscore" unicode="_" d="M0 -164 l1024 0 l0 -170 l-1024 0 l0 170 Z" /><glyph glyph-name="grave" unicode="`" d="M137 1450 l156 145 l348 -387 l-98 -106 q-10 6 -27.5 17 q-17.5 11 -68 47.5 q-50.5 36.5 -98 74.5 q-47.5 38 -107.5 95.5 q-60 57.5 -105 113.5 Z" /><glyph glyph-name="a" unicode="a" d="M72 496 q0 235 136 387.5 q136 152.5 353 152.5 q30 0 63.5 -2.5 q33.5 -2.5 64.5 -6 q31 -3.5 64.5 -9 q33.5 -5.5 60 -10.5 q26.5 -5 53 -10.5 q26.5 -5.5 43 -9.5 q16.5 -4 31 -7.5 q14.5 -3.5 15.5 -3.5 l0 -483 q0 -91 10 -169 q10 -78 25 -125.5 q15 -47.5 29.5 -81.5 q14.5 -34 24.5 -48 l10 -13 l-183 -73 q-4 4 -10.5 10.5 q-6.5 6.5 -23 30.5 q-16.5 24 -30 51 q-13.5 27 -25.5 70.5 q-12 43.5 -15 89.5 q-34 -125 -112 -186.5 q-78 -61.5 -207 -61.5 q-187 0 -282 135.5 q-95 135.5 -95 372.5 ZM324 516 q0 -55 2 -94 q2 -39 7 -84 q5 -45 16.5 -75.5 q11.5 -30.5 28.5 -57.5 q17 -27 45 -40 q28 -13 64 -13 q65 0 120 59 q55 59 85.5 151 q30.5 92 30.5 193 l0 295 q-74 22 -135 22 q-75 0 -127.5 -26 q-52.5 -26 -81.5 -75 q-29 -49 -42 -111 q-13 -62 -13 -144 Z" /><glyph glyph-name="b" unicode="b" d="M133 47 l0 1397 l234 41 l0 -625 q78 176 274 176 q187 0 282 -135.5 q95 -135.5 95 -372.5 q0 -235 -136.5 -387.5 q-136.5 -152.5 -353.5 -152.5 q-73 0 -171.5 15 q-98.5 15 -160.5 29 l-63 15 ZM367 172 q83 -20 135 -20 q75 0 127.5 26 q52.5 26 81.5 75 q29 49 42 111 q13 62 13 144 q0 66 -2.5 112 q-2.5 46 -12 97.5 q-9.5 51.5 -26.5 82.5 q-17 31 -48 51.5 q-31 20.5 -75 20.5 q-65 0 -120 -59 q-55 -59 -85 -151 q-30 -92 -30 -193 l0 -297 Z" /><glyph glyph-name="c" unicode="c" d="M72 485 q0 262 132 410.5 q132 148.5 337 148.5 q177 0 276 -139 l-131 -125 q-27 29 -42 43 q-15 14 -43.5 27.5 q-28.5 13.5 -61.5 13.5 q-30 0 -55 -5 q-25 -5 -56.5 -26 q-31.5 -21 -52.5 -56.5 q-21 -35.5 -36 -102.5 q-15 -67 -15 -158 q0 -92 14.5 -160 q14.5 -68 36.5 -105.5 q22 -37.5 54 -60.5 q32 -23 59.5 -29.5 q27.5 -6.5 60.5 -6.5 q63 0 201 41 l57 -148 q-1 0 -8 -3.5 q-7 -3.5 -14.5 -6.5 q-7.5 -3 -20.5 -8.5 q-13 -5.5 -27 -9.5 q-14 -4 -32 -9.5 q-18 -5.5 -39 -9.5 q-21 -4 -44 -7 q-23 -3 -49.5 -5 q-26.5 -2 -54.5 -2 q-116 0 -202.5 35.5 q-86.5 35.5 -139 102 q-52.5 66.5 -78.5 157 q-26 90.5 -26 204.5 Z" /><glyph glyph-name="d" unicode="d" d="M72 496 q0 235 136 387.5 q136 152.5 353 152.5 q66 0 162 -14 l0 463 l233 -41 l0 -950 q0 -67 5 -126 q5 -59 13.5 -101 q8.5 -42 18.5 -77 q10 -35 20.5 -58.5 q10.5 -23.5 19 -38.5 q8.5 -15 15 -25 q6.5 -10 7.5 -11 l-183 -73 q-92 92 -104 252 q-34 -125 -112 -186.5 q-78 -61.5 -207 -61.5 q-187 0 -282 135.5 q-95 135.5 -95 372.5 ZM324 516 q0 -54 2 -93 q2 -39 7 -84.5 q5 -45.5 16.5 -75.5 q11.5 -30 28.5 -56.5 q17 -26.5 45 -39.5 q28 -13 64 -13 q98 0 167 122.5 q69 122.5 69 278.5 l0 295 q-74 22 -135 22 q-75 0 -127.5 -26 q-52.5 -26 -81.5 -75 q-29 -49 -42 -111 q-13 -62 -13 -144 Z" /><glyph glyph-name="e" unicode="e" d="M72 485 q0 265 138 412 q138 147 355 147 q174 0 258 -79.5 q84 -79.5 84 -210.5 q0 -152 -162.5 -259 q-162.5 -107 -425.5 -110 q12 -107 63.5 -169 q51.5 -62 164.5 -62 q53 0 125.5 18 q72.5 18 119.5 36 l46 17 l61 -145 q-7 -4 -20.5 -10 q-13.5 -6 -55 -22.5 q-41.5 -16.5 -84.5 -29 q-43 -12.5 -105 -22.5 q-62 -10 -120 -10 q-227 0 -334.5 132 q-107.5 132 -107.5 367 ZM313 532 q93 4 165.5 25.5 q72.5 21.5 113.5 54 q41 32.5 61.5 68.5 q20.5 36 20.5 74 q0 60 -35 95.5 q-35 35.5 -92 35.5 q-64 0 -111 -30.5 q-47 -30.5 -72.5 -84 q-25.5 -53.5 -37 -111.5 q-11.5 -58 -13.5 -127 Z" /><glyph glyph-name="f" unicode="f" d="M0 -301 q59 30 101 67 q42 37 63 68.5 q21 31.5 33 71.5 q12 40 14 65 q2 25 2 58 l0 825 l-184 0 l0 166 l178 0 q-14 57 -14 125 q0 158 105 246 q105 88 259 88 q136 0 215 -86 l-100 -133 q-9 9 -42 23.5 q-33 14.5 -57 14.5 q-24 0 -46.5 -6 q-22.5 -6 -49 -21.5 q-26.5 -15.5 -43 -50.5 q-16.5 -35 -16.5 -85 q0 -52 16 -115 l254 0 l-29 -166 l-213 0 l0 -803 q0 -68 -12 -127 q-12 -59 -28.5 -101.5 q-16.5 -42.5 -47.5 -82.5 q-31 -40 -55.5 -64.5 q-24.5 -24.5 -67.5 -52.5 q-43 -28 -68.5 -42 q-25.5 -14 -72.5 -38 l-94 156 Z" /><glyph glyph-name="g" unicode="g" d="M72 496 q0 235 136 387.5 q136 152.5 353 152.5 q166 0 402 -59 l-11 -563 q0 -5 0 -10 q0 -82 30 -206 q32 -132 32 -212 q0 -211 -109 -320.5 q-109 -109.5 -301 -109.5 q-106 0 -221.5 32 q-115.5 32 -153.5 54 l58 178 q3 -1 35 -13.5 q32 -12.5 42 -16 q10 -3.5 39.5 -14.5 q29.5 -11 46.5 -15 q17 -4 42.5 -10 q25.5 -6 47.5 -8.5 q22 -2.5 44 -2.5 q109 0 163 66.5 q54 66.5 54 179.5 q0 106 -45 215 q-72 -213 -307 -213 q-187 0 -282 135.5 q-95 135.5 -95 372.5 ZM324 516 q0 -55 2 -94 q2 -39 7 -84 q5 -45 16.5 -75.5 q11.5 -30.5 28.5 -57.5 q17 -27 45 -40 q28 -13 64 -13 q95 0 165.5 118.5 q70.5 118.5 70.5 268.5 l0 311 q-74 22 -135 22 q-75 0 -127.5 -26 q-52.5 -26 -81.5 -75 q-29 -49 -42 -111 q-13 -62 -13 -144 Z" /><glyph glyph-name="h" unicode="h" d="M133 0 l0 1444 l234 41 l0 -596 q110 147 317 147 q299 0 299 -352 l0 -684 l-233 0 l0 668 q0 186 -136 186 q-91 0 -169 -90 q-78 -90 -78 -223 l0 -541 l-234 0 Z" /><glyph glyph-name="i" unicode="i" d="M102 1329 q0 65 37.5 105.5 q37.5 40.5 106.5 40.5 q63 0 99 -38.5 q36 -38.5 36 -101.5 q0 -64 -37 -103.5 q-37 -39.5 -104 -39.5 q-64 0 -101 39 q-37 39 -37 98 ZM125 223 l0 797 l233 0 l0 -776 q0 -44 14 -62 q14 -18 44 -18 l53 4 l25 -148 q-50 -28 -146 -28 q-105 0 -164 63.5 q-59 63.5 -59 167.5 Z" /><glyph glyph-name="j" unicode="j" d="M-80 -301 q58 30 100 67 q42 37 63 69 q21 32 33 71 q12 39 14.5 64 q2.5 25 2.5 57 l0 993 l234 0 l0 -971 q0 -68 -12 -127 q-12 -59 -28.5 -101 q-16.5 -42 -48.5 -82 q-32 -40 -55.5 -63.5 q-23.5 -23.5 -68.5 -53 q-45 -29.5 -68 -42 q-23 -12.5 -72 -37.5 l-94 156 ZM111 1329 q0 65 37 105.5 q37 40.5 104 40.5 q65 0 101 -38.5 q36 -38.5 36 -101.5 q0 -64 -37.5 -103.5 q-37.5 -39.5 -105.5 -39.5 q-63 0 -99 39 q-36 39 -36 98 Z" /><glyph glyph-name="k" unicode="k" d="M133 0 l0 1444 l234 41 l0 -584 q111 137 315 137 q131 0 216 -73 q85 -73 85 -197 q0 -49 -13.5 -93 q-13.5 -44 -35.5 -74.5 q-22 -30.5 -48 -56 q-26 -25.5 -52 -41.5 q-26 -16 -48 -26.5 q-22 -10.5 -36 -14.5 l-13 -5 l287 -457 l-264 0 l-295 510 l-2 20 q28 6 65 19 q37 13 91 39.5 q54 26.5 90 69.5 q36 43 36 94 q0 59 -34 89.5 q-34 30.5 -93 30.5 q-58 0 -105 -21 q-47 -21 -73 -49.5 q-26 -28.5 -43.5 -61.5 q-17.5 -33 -23.5 -54 q-6 -21 -6 -29 l0 -657 l-234 0 Z" /><glyph glyph-name="l" unicode="l" d="M123 221 l0 1223 l233 43 l0 -1243 q0 -45 18 -64.5 q18 -19.5 54 -19.5 q24 0 51.5 4 q27.5 4 42.5 8 l15 4 l28 -147 q-84 -37 -215 -37 q-112 0 -169.5 62.5 q-57.5 62.5 -57.5 166.5 Z" /><glyph glyph-name="m" unicode="m" d="M51 952 l185 74 q8 -9 21.5 -25.5 q13.5 -16.5 40.5 -74 q27 -57.5 38 -121.5 q48 117 140 174 q92 57 202 57 q187 0 250 -190 q53 97 138.5 143.5 q85.5 46.5 186.5 46.5 q152 0 216.5 -91.5 q64.5 -91.5 64.5 -260.5 l0 -684 l-231 0 l0 668 q0 186 -119 186 q-83 0 -154.5 -88 q-71.5 -88 -71.5 -221 l0 -545 l-231 0 l0 668 q0 186 -119 186 q-88 0 -155.5 -96 q-67.5 -96 -67.5 -250 l0 -508 l-233 0 l0 516 q0 91 -10.5 169.5 q-10.5 78.5 -25 125.5 q-14.5 47 -29.5 80.5 q-15 33.5 -25 46.5 l-11 14 Z" /><glyph glyph-name="n" unicode="n" d="M51 952 l185 74 q3 -3 8.5 -9 q5.5 -6 20 -27 q14.5 -21 26.5 -44.5 q12 -23.5 25.5 -61.5 q13.5 -38 19.5 -79 q51 117 148.5 174 q97.5 57 215.5 57 q153 0 226 -92 q73 -92 73 -260 l0 -684 l-231 0 l0 662 q0 190 -135 190 q-98 0 -173 -96 q-75 -96 -75 -250 l0 -506 l-233 0 l0 516 q0 91 -10.5 169.5 q-10.5 78.5 -25 125.5 q-14.5 47 -29.5 80.5 q-15 33.5 -25 46.5 l-11 14 Z" /><glyph glyph-name="o" unicode="o" d="M72 500 q0 158 50.5 278.5 q50.5 120.5 157.5 193 q107 72.5 259 72.5 q229 0 338.5 -135 q109.5 -135 109.5 -387 q0 -117 -29.5 -214.5 q-29.5 -97.5 -86 -171 q-56.5 -73.5 -146.5 -115 q-90 -41.5 -205 -41.5 q-229 0 -338.5 134.5 q-109.5 134.5 -109.5 385.5 ZM324 520 q0 -82 9.5 -144 q9.5 -62 32.5 -115 q23 -53 67 -81 q44 -28 108 -28 q57 0 96.5 26 q39.5 26 60 76 q20.5 50 29 109 q8.5 59 8.5 139 q0 83 -9.5 145.5 q-9.5 62.5 -32.5 115.5 q-23 53 -67 81 q-44 28 -108 28 q-57 0 -96.5 -26 q-39.5 -26 -60 -76.5 q-20.5 -50.5 -29 -110 q-8.5 -59.5 -8.5 -139.5 Z" /><glyph glyph-name="p" unicode="p" d="M51 952 l185 74 q3 -3 9 -10 q6 -7 21.5 -29.5 q15.5 -22.5 28 -48.5 q12.5 -26 25.5 -67 q13 -41 18 -85 q34 125 112 187.5 q78 62.5 209 62.5 q187 0 281 -135 q94 -135 94 -373 q0 -235 -135.5 -387.5 q-135.5 -152.5 -353.5 -152.5 q-54 0 -160 12 l0 -412 l-233 -41 l0 969 q0 91 -10.5 169.5 q-10.5 78.5 -25 125.5 q-14.5 47 -29.5 80.5 q-15 33.5 -25 46.5 l-11 14 ZM385 174 q74 -22 133 -22 q75 0 128.5 26 q53.5 26 82.5 75 q29 49 42 111 q13 62 13 144 q0 55 -2 94 q-2 39 -7 84 q-5 45 -16.5 75.5 q-11.5 30.5 -28.5 57.5 q-17 27 -45 40 q-28 13 -64 13 q-65 0 -120 -59 q-55 -59 -85.5 -151 q-30.5 -92 -30.5 -193 l0 -295 Z" /><glyph glyph-name="q" unicode="q" d="M72 496 q0 235 136 387.5 q136 152.5 353 152.5 q73 0 171.5 -15 q98.5 -15 161.5 -29 l62 -15 l0 -1432 l-233 43 l0 539 q-83 -139 -274 -139 q-187 0 -282 135.5 q-95 135.5 -95 372.5 ZM324 516 q0 -54 2 -93 q2 -39 7 -84.5 q5 -45.5 16.5 -75.5 q11.5 -30 28.5 -56.5 q17 -26.5 45 -39.5 q28 -13 64 -13 q97 0 166.5 122.5 q69.5 122.5 69.5 278.5 l0 295 q-74 22 -135 22 q-75 0 -127.5 -26 q-52.5 -26 -81.5 -75 q-29 -49 -42 -111 q-13 -62 -13 -144 Z" /><glyph glyph-name="r" unicode="r" d="M51 952 l185 74 q8 -8 21 -24.5 q13 -16.5 39.5 -72 q26.5 -55.5 37.5 -118.5 q78 223 295 223 q10 0 21 -1 q11 -1 21 -2 q10 -1 19.5 -2.5 q9.5 -1.5 18 -3.5 q8.5 -2 16 -4 q7.5 -2 13.5 -3.5 q6 -1.5 10 -2.5 q4 -1 6 -2 l2 -1 l-66 -228 l-20 10 q-34 13 -80 13 q-78 0 -141.5 -71 q-63.5 -71 -63.5 -175 l0 -561 l-233 0 l0 516 q0 91 -10.5 169.5 q-10.5 78.5 -25 125.5 q-14.5 47 -29.5 80.5 q-15 33.5 -25 46.5 l-11 14 Z" /><glyph glyph-name="s" unicode="s" d="M49 78 l76 172 q-1 0 16.5 -10 q17.5 -10 47 -24.5 q29.5 -14.5 64 -29 q34.5 -14.5 73 -24.5 q38.5 -10 67.5 -10 q70 0 106 27.5 q36 27.5 36 76.5 q0 55 -39 99 q-39 44 -113 71 q-157 59 -226 136 q-69 77 -69 196 q0 118 99.5 202 q99.5 84 246.5 84 q72 0 151.5 -20 q79.5 -20 122.5 -40 l44 -19 l-70 -160 q-15 8 -40.5 19 q-25.5 11 -90 29.5 q-64.5 18.5 -111.5 18.5 q-48 0 -81 -24 q-33 -24 -33 -66 q0 -117 170 -182 q141 -54 207.5 -123 q66.5 -69 66.5 -192 q0 -123 -97.5 -214 q-97.5 -91 -258.5 -91 q-29 0 -60 3.5 q-31 3.5 -59 9 q-28 5.5 -56 13 q-28 7.5 -52 16 q-24 8.5 -46 16.5 q-22 8 -38.5 15.5 q-16.5 7.5 -29 13 q-12.5 5.5 -18.5 8.5 l-6 3 Z" /><glyph glyph-name="t" unicode="t" d="M20 854 l0 166 l185 0 l41 240 l192 43 l0 -283 l252 0 l-28 -166 l-224 0 l0 -606 q0 -84 92 -84 q35 0 75 7 q40 7 63 15 l22 7 l39 -154 l-3 -1 q-4 -2 -11.5 -5 q-7.5 -3 -18 -6.5 q-10.5 -3.5 -25 -7 q-14.5 -3.5 -31 -7.5 q-16.5 -4 -36.5 -7.5 q-20 -3.5 -41.5 -6.5 q-21.5 -3 -46 -4.5 q-24.5 -1.5 -49.5 -1.5 q-262 0 -262 229 l0 633 l-185 0 Z" /><glyph glyph-name="u" unicode="u" d="M123 340 l0 680 l233 0 l0 -676 q0 -184 136 -184 q96 0 171.5 102 q75.5 102 75.5 258 l0 500 l234 0 l0 -526 q0 -91 10 -169 q10 -78 24.5 -125.5 q14.5 -47.5 29 -81.5 q14.5 -34 24.5 -48 l10 -13 l-182 -73 q-3 3 -9 9 q-6 6 -21.5 27.5 q-15.5 21.5 -28.5 46 q-13 24.5 -26 63.5 q-13 39 -18 81 q-53 -114 -150 -168.5 q-97 -54.5 -214 -54.5 q-299 0 -299 352 Z" /><glyph glyph-name="v" unicode="v" d="M123 340 l0 680 l233 0 l0 -674 q0 -192 136 -192 q71 0 122 53.5 q51 53.5 78.5 147 q27.5 93.5 40 200 q12.5 106.5 12.5 231.5 q0 32 -2.5 67.5 q-2.5 35.5 -5.5 64.5 q-3 29 -6 52.5 q-3 23.5 -5.5 37 q-2.5 13.5 -2.5 12.5 l238 0 l1 -4 q0 -3 2 -10 q2 -7 3 -16.5 q1 -9.5 2.5 -22 q1.5 -12.5 3 -26 q1.5 -13.5 3 -29.5 q1.5 -16 3 -32.5 q1.5 -16.5 2 -34 q0.5 -17.5 0.5 -34.5 q0 -301 -61 -482.5 q-61 -181.5 -181.5 -260 q-120.5 -78.5 -316.5 -78.5 q-299 0 -299 350 Z" /><glyph glyph-name="w" unicode="w" d="M123 334 l0 686 l233 0 l0 -668 q0 -92 33 -145 q33 -53 103 -53 q98 0 147 94 q49 94 49 303 l0 469 l232 0 q-5 -537 -5 -668 q0 -91 34.5 -144.5 q34.5 -53.5 105.5 -53.5 q35 0 63 13.5 q28 13.5 48 42.5 q20 29 34.5 61 q14.5 32 23.5 83 q9 51 15 94.5 q6 43.5 8.5 108.5 q2.5 65 3 111.5 q0.5 46.5 0.5 117.5 q0 132 -22 234 l237 0 l0 -4 q1 -3 2.5 -9.5 q1.5 -6.5 3 -16 q1.5 -9.5 3 -22 q1.5 -12.5 3.5 -26 q2 -13.5 3.5 -29.5 q1.5 -16 3 -32.5 q1.5 -16.5 2 -34.5 q0.5 -18 0.5 -35 q0 -232 -25 -385.5 q-25 -153.5 -85 -253.5 q-60 -100 -154.5 -143 q-94.5 -43 -237.5 -43 q-200 0 -272 164 q-38 -87 -103 -125.5 q-65 -38.5 -188 -38.5 q-299 0 -299 348 Z" /><glyph glyph-name="x" unicode="x" d="M-10 0 l342 541 l-299 479 l270 0 l129 -211 q15 -25 74 -150 q51 75 90 146 q13 25 25.5 50 q12.5 25 21.5 46 q9 21 17 40 q8 19 13 33.5 q5 14.5 8.5 25 q3.5 10.5 4.5 15.5 l2 5 l242 0 l-2 -6 q-2 -5 -6 -17 q-4 -12 -10 -27.5 q-6 -15.5 -15 -38 q-9 -22.5 -20 -46.5 q-11 -24 -26 -55 q-15 -31 -32 -62 q-60 -110 -168 -229 l332 -539 l-266 0 l-152 264 l-80 150 l-79 -152 l-154 -262 l-262 0 Z" /><glyph glyph-name="y" unicode="y" d="M123 340 l0 680 l233 0 l0 -674 q0 -184 136 -184 q86 0 165.5 89 q79.5 89 79.5 214 l0 555 l240 0 l-10 -606 q0 -3 0 -5 q0 -82 30 -210 q31 -132 31 -213 q0 -211 -109 -320.5 q-109 -109.5 -301 -109.5 q-107 0 -221.5 32 q-114.5 32 -152.5 54 l57 178 l23 -10 q24 -9 28.5 -10.5 q4.5 -1.5 27 -10 q22.5 -8.5 30.5 -11 q8 -2.5 29 -9.5 q21 -7 32.5 -10 q11.5 -3 30.5 -7.5 q19 -4.5 33 -6.5 q14 -2 31 -3.5 q17 -1.5 32 -1.5 q109 0 163 66.5 q54 66.5 54 179.5 q0 99 -41 202 q-54 -102 -147.5 -151 q-93.5 -49 -204.5 -49 q-299 0 -299 352 Z" /><glyph glyph-name="z" unicode="z" d="M61 0 l0 139 l453 717 q-105 -6 -207 -6 l-201 0 l-28 170 l708 0 l0 -139 l-446 -717 q92 6 184 6 l281 0 l0 -170 l-744 0 Z" /><glyph glyph-name="braceleft" unicode="{" d="M123 461 l0 168 q71 15 107 68 q36 53 36 134 q0 57 -14 198 q-14 141 -14 218 q0 108 76 172 q76 64 214 64 q76 0 174 -25 l-45 -172 q-62 19 -90 19 q-51 0 -73.5 -29 q-22.5 -29 -22.5 -62 q0 -64 13.5 -183.5 q13.5 -119.5 13.5 -170.5 q0 -104 -34.5 -179.5 q-34.5 -75.5 -135.5 -137.5 q101 -60 135.5 -136 q34.5 -76 34.5 -178 q0 -51 -13.5 -170.5 q-13.5 -119.5 -13.5 -183.5 q0 -34 22.5 -62 q22.5 -28 73.5 -28 q31 0 90 18 l45 -172 q-95 -24 -174 -24 q-138 0 -214 63.5 q-76 63.5 -76 171.5 q0 77 14 218 q14 141 14 198 q0 81 -36.5 134.5 q-36.5 53.5 -106.5 68.5 Z" /><glyph glyph-name="bar" unicode="|" d="M205 -258 l0 1751 l223 0 l0 -1751 l-223 0 Z" /><glyph glyph-name="braceright" unicode="}" d="M41 -369 l47 172 q56 -18 90 -18 q51 0 73.5 28 q22.5 28 22.5 62 q0 64 -13 183.5 q-13 119.5 -13 170.5 q0 102 34.5 178 q34.5 76 135.5 136 q-101 62 -135.5 137.5 q-34.5 75.5 -34.5 179.5 q0 51 13 170.5 q13 119.5 13 183.5 q0 33 -22.5 62 q-22.5 29 -73.5 29 q-31 0 -90 -19 l-47 172 q103 25 176 25 q137 0 213 -64 q76 -64 76 -172 q0 -77 -14.5 -218 q-14.5 -141 -14.5 -198 q0 -81 36.5 -134 q36.5 -53 107.5 -68 l0 -168 q-71 -15 -107.5 -68.5 q-36.5 -53.5 -36.5 -134.5 q0 -57 14.5 -198 q14.5 -141 14.5 -218 q0 -108 -76 -171.5 q-76 -63.5 -213 -63.5 q-77 0 -176 24 Z" /><glyph glyph-name="asciitilde" unicode="~" d="M102 631 q3 7 9.5 18 q6.5 11 30 40 q23.5 29 50.5 51.5 q27 22.5 71.5 40.5 q44.5 18 92.5 18 q44 0 84 -12.5 q40 -12.5 70 -30.5 q30 -18 58.5 -36.5 q28.5 -18.5 62 -31 q33.5 -12.5 67.5 -12.5 q58 0 89 19 q31 19 81 75 l86 -94 q-3 -7 -9.5 -18.5 q-6.5 -11.5 -30.5 -40.5 q-24 -29 -51 -51.5 q-27 -22.5 -71.5 -41 q-44.5 -18.5 -93.5 -18.5 q-44 0 -83.5 12.5 q-39.5 12.5 -69.5 31 q-30 18.5 -58.5 36.5 q-28.5 18 -62 30.5 q-33.5 12.5 -68.5 12.5 q-57 0 -86 -18.5 q-29 -18.5 -82 -75.5 l-86 96 Z" /><glyph glyph-name="nonbreakingspace" unicode=" " d="" /><glyph glyph-name="exclamdown" unicode="¡" d="M135 885 q0 64 40 107.5 q40 43.5 108 43.5 q74 0 114.5 -44 q40.5 -44 40.5 -111 q0 -69 -39.5 -111.5 q-39.5 -42.5 -109.5 -42.5 q-73 0 -113.5 44.5 q-40.5 44.5 -40.5 113.5 ZM188 -373 l0 936 l201 0 l60 -936 l-261 0 Z" /><glyph glyph-name="cent" unicode="¢" d="M113 635 q0 231 105 366 q105 135 278 162 l0 176 l159 0 l0 -178 q134 -24 211 -131 l-133 -127 q-45 49 -78 66 l0 -645 q30 4 66.5 13.5 q36.5 9.5 56.5 15.5 q20 6 19 5 l57 -147 l-2 -1 q-3 -2 -8.5 -4.5 q-5.5 -2.5 -13.5 -5.5 q-8 -3 -19 -7 q-11 -4 -23.5 -8 q-12.5 -4 -27.5 -8.5 q-15 -4.5 -31.5 -8 q-16.5 -3.5 -35.5 -7 q-19 -3.5 -38 -5.5 l0 -242 l-159 0 l0 238 q-383 35 -383 483 ZM358 666 q0 -276 138 -332 l0 645 q-138 -39 -138 -313 Z" /><glyph glyph-name="sterling" unicode="£" d="M123 514 l0 184 l151 0 l15 181 q14 193 131.5 308.5 q117.5 115.5 306.5 115.5 q197 0 322 -93 l-99 -178 l-10 8 q-9 7 -28 19 q-19 12 -43 24 q-24 12 -58.5 20.5 q-34.5 8.5 -69.5 8.5 q-186 0 -209 -219 l-20 -195 l373 0 l-29 -184 l-364 0 l-9 -80 q-17 -150 -86 -254 q83 13 152 13 q39 0 115 -6.5 q76 -6.5 116 -6.5 q37 0 85.5 12 q48.5 12 78.5 24 l29 11 l69 -172 q1 0 -13 -7 q-14 -7 -39.5 -16.5 q-25.5 -9.5 -57.5 -19.5 q-32 -10 -72.5 -17 q-40.5 -7 -77.5 -7 q-65 0 -164 12 q-99 12 -141 12 q-71 0 -141.5 -4 q-70.5 -4 -105.5 -8 l-35 -4 l-58 137 q4 3 11 8 q7 5 24.5 25 q17.5 20 31.5 44 q14 24 27.5 65.5 q13.5 41.5 16.5 89.5 l12 149 l-137 0 Z" /><glyph glyph-name="currency" unicode="¤" d="M61 129 l177 158 q-93 123 -93 293 q0 168 97 292 l-176 160 l139 139 l170 -188 q104 55 227 55 q129 0 229 -53 l168 186 l142 -139 l-178 -160 q96 -123 96 -292 q0 -168 -96 -291 l180 -160 l-139 -139 l-173 188 q-107 -55 -233 -55 q-127 0 -227 53 l-170 -186 l-140 139 ZM319 590 q0 -132 79 -223 q79 -91 200 -91 q127 0 207 83.5 q80 83.5 80 213.5 q0 133 -80.5 223.5 q-80.5 90.5 -206.5 90.5 q-123 0 -201 -84 q-78 -84 -78 -213 Z" /><glyph glyph-name="yen" unicode="¥" d="M61 1305 l265 0 l278 -564 l287 564 l258 0 l-344 -607 l168 0 l0 -180 l-250 0 l0 -127 l250 0 l0 -180 l-250 0 l0 -211 l-244 0 l0 211 l-246 0 l0 180 l246 0 l0 127 l-246 0 l0 180 l168 0 l-340 607 Z" /><glyph glyph-name="brokenbar" unicode="¦" d="M205 -258 l0 766 l223 0 l0 -766 l-223 0 ZM205 723 l0 770 l223 0 l0 -770 l-223 0 Z" /><glyph glyph-name="section" unicode="§" d="M102 502 q0 64 21.5 117 q21.5 53 58.5 89 q37 36 71 58.5 q34 22.5 73 38.5 q-80 100 -80 209 q0 129 95.5 216 q95.5 87 250.5 87 q32 0 64.5 -3.5 q32.5 -3.5 56 -8.5 q23.5 -5 49 -12.5 q25.5 -7.5 39.5 -13 q14 -5.5 30.5 -12 q16.5 -6.5 18.5 -7.5 l-72 -160 q-86 45 -180 45 q-117 0 -117 -109 q0 -37 18 -71.5 q18 -34.5 54.5 -67.5 q36.5 -33 71 -59 q34.5 -26 90 -64.5 q55.5 -38.5 88.5 -64.5 q98 -76 152.5 -155 q54.5 -79 54.5 -183 q0 -51 -15.5 -96 q-15.5 -45 -38.5 -76.5 q-23 -31.5 -54.5 -59 q-31.5 -27.5 -58.5 -43 q-27 -15.5 -57 -28.5 q80 -100 80 -207 q0 -129 -95.5 -216 q-95.5 -87 -250.5 -87 q-60 0 -123 13.5 q-63 13.5 -95.5 26 q-32.5 12.5 -39.5 17.5 l72 160 q90 -45 180 -45 q117 0 117 108 q0 43 -24.5 82.5 q-24.5 39.5 -68.5 76 q-44 36.5 -90.5 69 q-46.5 32.5 -106 75.5 q-59.5 43 -99.5 80 q-140 133 -140 281 ZM340 528 q0 -35 17.5 -69.5 q17.5 -34.5 54 -69.5 q36.5 -35 70 -62 q33.5 -27 88.5 -68.5 q55 -41.5 87 -68.5 q47 17 81 54.5 q34 37.5 34 101.5 q0 35 -17.5 68.5 q-17.5 33.5 -54.5 69 q-37 35.5 -69.5 62 q-32.5 26.5 -89.5 69 q-57 42.5 -88 67.5 q-113 -42 -113 -154 Z" /><glyph glyph-name="dieresis" unicode="¨" d="M180 1290 q0 59 34 96 q34 37 95 37 q59 0 92 -36 q33 -36 33 -93 q0 -58 -34.5 -94.5 q-34.5 -36.5 -96.5 -36.5 q-57 0 -90 36.5 q-33 36.5 -33 90.5 ZM588 1290 q0 59 34 96 q34 37 97 37 q59 0 92 -36 q33 -36 33 -93 q0 -58 -34.5 -94.5 q-34.5 -36.5 -96.5 -36.5 q-58 0 -91.5 36 q-33.5 36 -33.5 91 Z" /><glyph glyph-name="copyright" unicode="©" d="M92 696 q0 205 91.5 367 q91.5 162 254.5 252 q163 90 369 90 q205 0 365.5 -90 q160.5 -90 248.5 -251.5 q88 -161.5 88 -367.5 q0 -205 -92 -367 q-92 -162 -255 -251.5 q-163 -89.5 -369 -89.5 q-205 0 -365 90 q-160 90 -248 251 q-88 161 -88 367 ZM266 709 q0 -157 67.5 -288 q67.5 -131 190.5 -207.5 q123 -76.5 275 -76.5 q235 0 384.5 153 q149.5 153 149.5 392 q0 159 -66.5 289.5 q-66.5 130.5 -189 207 q-122.5 76.5 -276.5 76.5 q-235 0 -385 -153.5 q-150 -153.5 -150 -392.5 ZM506 692 q0 195 88 309.5 q88 114.5 262 114.5 q119 0 195 -80 l-101 -108 q-52 39 -110 39 q-142 0 -142 -262 q0 -117 38 -190 q38 -73 114 -73 q72 0 139 27 l45 -135 q-6 -4 -30.5 -12.5 q-24.5 -8.5 -75.5 -18.5 q-51 -10 -103 -10 q-158 0 -238.5 101.5 q-80.5 101.5 -80.5 297.5 Z" /><glyph glyph-name="ordfeminine" unicode="ª" d="M72 1038 q0 160 95 263.5 q95 103.5 245 103.5 q31 0 70.5 -4 q39.5 -4 75 -9.5 q35.5 -5.5 66 -11.5 q30.5 -6 49 -10 q18.5 -4 17.5 -4 l0 -332 q0 -95 17 -169 q17 -74 34 -101 l17 -27 l-135 -53 q-6 5 -16 15 q-10 10 -31.5 43 q-21.5 33 -32.5 69 q-53 -125 -201 -125 q-134 0 -202 94 q-68 94 -68 258 ZM270 1051 q0 -51 3 -87 q3 -36 12 -72.5 q9 -36.5 29 -55.5 q20 -19 51 -19 q59 0 101 88 q42 88 42 199 l0 162 q-75 12 -78 12 q-88 0 -124 -59.5 q-36 -59.5 -36 -167.5 Z" /><glyph glyph-name="guillemotleft" unicode="«" d="M102 502 q70 89 180.5 200 q110.5 111 185.5 178 l75 66 l96 -110 l-266 -334 l266 -334 l-96 -111 q-32 27 -83 73 q-51 46 -169.5 164.5 q-118.5 118.5 -188.5 207.5 ZM553 502 q69 89 178.5 200 q109.5 111 184.5 178 l75 66 l96 -110 l-266 -334 l266 -334 l-96 -111 q-11 10 -31 27.5 q-20 17.5 -77 70.5 q-57 53 -109 104 q-52 51 -114.5 119 q-62.5 68 -106.5 124 Z" /><glyph glyph-name="logicalnot" unicode="¬" d="M102 629 l0 180 l840 0 l0 -436 l-176 0 l0 256 l-664 0 Z" /><glyph glyph-name="uni00AD" unicode="­" d="M102 569 l0 170 l580 0 l0 -170 l-580 0 Z" /><glyph glyph-name="registered" unicode="®" d="M123 930 q0 209 134.5 342 q134.5 133 344.5 133 q209 0 340 -132.5 q131 -132.5 131 -342.5 q0 -208 -135.5 -341.5 q-135.5 -133.5 -343.5 -133.5 q-209 0 -340 132.5 q-131 132.5 -131 342.5 ZM256 936 q0 -154 96 -259.5 q96 -105.5 242 -105.5 q151 0 246.5 97.5 q95.5 97.5 95.5 251.5 q0 155 -96 259.5 q-96 104.5 -246 104.5 q-148 0 -243 -97.5 q-95 -97.5 -95 -250.5 ZM428 666 l0 522 q4 0 67.5 1 q63.5 1 86.5 1 q188 0 188 -146 q0 -73 -80 -120 q32 -10 52.5 -50.5 q20.5 -40.5 66.5 -166.5 l-102 -37 q-52 137 -78 175.5 q-26 38.5 -82 41.5 l-10 0 l0 -221 l-109 0 ZM537 950 q23 0 47 4 q45 9 59 26 q14 17 14 56 q0 37 -21 62.5 q-21 25.5 -69 25.5 l-30 0 l0 -174 Z" /><glyph glyph-name="macron" unicode="¯" d="M184 1229 l0 170 l660 0 l0 -170 l-660 0 Z" /><glyph glyph-name="degree" unicode="°" d="M147.5 1066.5 q-65.5 67.5 -65.5 170.5 q0 103 67.5 171.5 q67.5 68.5 169.5 68.5 q102 0 168 -68.5 q66 -68.5 66 -171.5 q0 -102 -68 -170 q-68 -68 -170 -68 q-102 0 -167.5 67.5 ZM213 1239 q0 -55 27.5 -89 q27.5 -34 76.5 -34 q51 0 79 32 q28 32 28 89 q0 55 -28.5 89 q-28.5 34 -78.5 34 q-49 0 -76.5 -32 q-27.5 -32 -27.5 -89 Z" /><glyph glyph-name="plusminus" unicode="±" d="M123 66 l0 180 l307 0 l0 280 l-305 0 l0 183 l305 0 l0 311 l193 0 l0 -311 l305 0 l0 -183 l-305 0 l0 -280 l303 0 l0 -180 l-803 0 Z" /><glyph glyph-name="twosuperior" unicode="²" d="M72 1325 q72 39 131 59.5 q59 20.5 123 20.5 q106 0 165.5 -48 q59.5 -48 59.5 -145 q0 -74 -44.5 -146.5 q-44.5 -72.5 -135.5 -166.5 q-28 -28 -84 -68 l278 0 l0 -143 l-491 0 l0 146 q81 59 151 137 q82 87 112 132.5 q30 45.5 30 90.5 q0 72 -58 72 q-15 0 -32 -3.5 q-17 -3.5 -33 -9.5 q-16 -6 -30.5 -12.5 q-14.5 -6.5 -28 -14.5 q-13.5 -8 -22.5 -13.5 q-9 -5.5 -17 -11 q-8 -5.5 -9 -5.5 l-65 129 Z" /><glyph glyph-name="threesuperior" unicode="³" d="M72 743 l53 125 q10 -6 28 -15 q18 -9 64.5 -24.5 q46.5 -15.5 83.5 -15.5 q40 0 69 25 q29 25 29 73 q0 39 -19 63.5 q-19 24.5 -54 24.5 q-30 0 -58 -3 q-28 -3 -40 -6 l-13 -3 l-43 107 q15 5 48.5 12.5 q33.5 7.5 54 14 q20.5 6.5 44.5 18 q24 11.5 36 29 q12 17.5 12 42.5 q0 23 -14.5 39.5 q-14.5 16.5 -37.5 16.5 q-47 0 -165 -52 l-62 129 q75 32 129 47 q54 15 117 15 q102 0 157.5 -46.5 q55.5 -46.5 55.5 -123.5 q0 -91 -90 -150 q58 -25 89.5 -70 q31.5 -45 31.5 -102 q0 -47 -14.5 -88 q-14.5 -41 -44.5 -76 q-30 -35 -84.5 -55 q-54.5 -20 -127.5 -20 q-107 0 -235 69 Z" /><glyph glyph-name="acute" unicode="´" d="M365 1208 l348 387 l155 -145 q-72 -89 -172.5 -176 q-100.5 -87 -165.5 -130 l-65 -42 l-100 106 Z" /><glyph glyph-name="mu" unicode="µ" d="M133 -455 l0 1475 l234 0 l0 -684 q0 -77 47 -126.5 q47 -49.5 118 -49.5 q85 0 151.5 86.5 q66.5 86.5 66.5 216.5 l0 557 l233 0 l0 -526 q0 -77 7 -143.5 q7 -66.5 16.5 -109.5 q9.5 -43 22.5 -80 q13 -37 23 -55 q10 -18 19 -33 q9 -15 10 -16 l-182 -73 q-69 55 -98 192 q-75 -188 -269 -188 q-94 0 -165 49 l0 -449 l-234 -43 Z" /><glyph glyph-name="paragraph" unicode="¶" d="M123 969 q0 200 121.5 311 q121.5 111 349.5 111 l0 -848 q-230 0 -350.5 113.5 q-120.5 113.5 -120.5 312.5 ZM582 -295 q52 25 90.5 53 q38.5 28 61 58.5 q22.5 30.5 36.5 55.5 q14 25 19.5 57.5 q5.5 32.5 6.5 50 q1 17.5 1 47.5 l0 1359 l241 0 l0 -1335 q0 -53 -7 -100.5 q-7 -47.5 -18 -84.5 q-11 -37 -30.5 -71.5 q-19.5 -34.5 -37.5 -59.5 q-18 -25 -46.5 -50.5 q-28.5 -25.5 -49.5 -42 q-21 -16.5 -55 -36 q-34 -19.5 -54.5 -31 q-20.5 -11.5 -55.5 -28.5 q-5 -3 -8 -4 l-94 162 Z" /><glyph glyph-name="periodcentered" unicode="·" d="M102 647 q0 69 41 113.5 q41 44.5 115 44.5 q69 0 108.5 -42.5 q39.5 -42.5 39.5 -111.5 q0 -67 -41 -111 q-41 -44 -113 -44 q-70 0 -110 43.5 q-40 43.5 -40 107.5 Z" /><glyph glyph-name="cedilla" unicode="¸" d="M305 -412 l33 111 q84 -27 131 -27 q102 0 102 64 q0 43 -59 66.5 q-59 23.5 -129 23.5 l45 180 l133 0 l-22 -102 q83 -6 133.5 -48 q50.5 -42 50.5 -114 q0 -54 -21.5 -92.5 q-21.5 -38.5 -58 -58.5 q-36.5 -20 -76.5 -28.5 q-40 -8.5 -86 -8.5 q-87 0 -176 34 Z" /><glyph glyph-name="onesuperior" unicode="¹" d="M20 1237 q-3 -3 41 14.5 q44 17.5 108.5 54.5 q64.5 37 109.5 80 l120 0 l0 -698 l-168 0 l0 516 q-64 -61 -139 -96 l-72 129 Z" /><glyph glyph-name="ordmasculine" unicode="º" d="M92 1032 q0 167 85.5 270 q85.5 103 248.5 103 q163 0 241 -92.5 q78 -92.5 78 -263.5 q0 -164 -85 -266.5 q-85 -102.5 -246 -102.5 q-164 0 -243 92 q-79 92 -79 260 ZM291 1047 q0 -70 10 -117.5 q10 -47.5 41.5 -80 q31.5 -32.5 85.5 -32.5 q67 0 93 57.5 q26 57.5 26 163.5 q0 108 -29 169 q-29 61 -106 61 q-47 0 -74.5 -30 q-27.5 -30 -37 -76 q-9.5 -46 -9.5 -115 Z" /><glyph glyph-name="guillemotright" unicode="»" d="M72 168 l266 334 l-266 334 l98 110 q31 -27 82 -73 q51 -46 168.5 -164 q117.5 -118 187.5 -207 q-70 -89 -179.5 -200.5 q-109.5 -111.5 -184.5 -177.5 l-74 -67 l-98 111 ZM522 168 l266 334 l-266 334 l96 110 q32 -27 83 -73 q51 -46 169 -164 q118 -118 187 -207 q-69 -89 -179 -200.5 q-110 -111.5 -185 -177.5 l-75 -67 l-96 111 Z" /><glyph glyph-name="onequarter" unicode="¼" d="M10 1051 q-1 -1 16 5 q17 6 45 19 q28 13 61 30 q33 17 70 42.5 q37 25.5 66 52.5 l121 0 l0 -698 l-168 0 l0 516 q-64 -61 -139 -96 l-72 129 ZM283 0 l561 1202 l190 0 l-559 -1202 l-192 0 ZM834 190 l0 80 l184 447 l168 0 l-170 -400 l139 0 l0 189 l170 41 l0 -230 l100 0 l-20 -127 l-80 0 l0 -190 l-170 0 l0 190 l-321 0 Z" /><glyph glyph-name="onehalf" unicode="½" d="M10 1051 q-1 -1 16 5 q17 6 45 19 q28 13 61 30 q33 17 70 42.5 q37 25.5 66 52.5 l121 0 l0 -698 l-168 0 l0 516 q-64 -61 -139 -96 l-72 129 ZM283 0 l561 1202 l190 0 l-559 -1202 l-192 0 ZM907 635 q142 80 254 80 q105 0 165 -47.5 q60 -47.5 60 -143.5 q0 -75 -45.5 -148.5 q-45.5 -73.5 -136.5 -164.5 q-33 -33 -82 -68 l279 0 l0 -143 l-492 0 l0 145 q82 58 152 138 q81 89 111 133.5 q30 44.5 30 89.5 q0 69 -57 69 q-13 0 -28 -2.5 q-15 -2.5 -28.5 -7 q-13.5 -4.5 -28 -10.5 q-14.5 -6 -25.5 -11.5 q-11 -5.5 -22.5 -12 q-11.5 -6.5 -18.5 -10.5 q-7 -4 -14 -9 l-7 -4 l-66 127 Z" /><glyph glyph-name="threequarters" unicode="¾" d="M12 541 l54 125 q10 -6 28 -15.5 q18 -9.5 64.5 -25 q46.5 -15.5 83.5 -15.5 q40 0 70 25.5 q30 25.5 30 73.5 q0 39 -19.5 63.5 q-19.5 24.5 -56.5 24.5 q-30 0 -57.5 -3.5 q-27.5 -3.5 -40.5 -6.5 l-12 -3 l-43 107 q14 4 48 12 q34 8 54 14.5 q20 6.5 44 18 q24 11.5 36 29.5 q12 18 12 43 q0 23 -13.5 39 q-13.5 16 -35.5 16 q-49 0 -168 -51 l-59 129 q71 31 125 46 q54 15 118 15 q102 0 158.5 -46.5 q56.5 -46.5 56.5 -123.5 q0 -91 -92 -149 q58 -25 90.5 -70 q32.5 -45 32.5 -102 q0 -47 -14 -88 q-14 -41 -44.5 -76 q-30.5 -35 -85 -55.5 q-54.5 -20.5 -128.5 -20.5 q-106 0 -236 70 ZM387 0 l559 1202 l193 0 l-561 -1202 l-191 0 ZM940 170 l0 82 l186 444 l168 0 l-170 -397 l138 0 l0 188 l170 41 l0 -229 l100 0 l-21 -129 l-79 0 l0 -170 l-170 0 l0 170 l-322 0 Z" /><glyph glyph-name="questiondown" unicode="¿" d="M49 -86 q0 46 14 94 q14 48 29 81.5 q15 33.5 51 84.5 q36 51 53 73 q17 22 62 77 q139 172 172 286 l172 -47 q0 -79 -30 -157 q-30 -78 -72.5 -139 q-42.5 -61 -85.5 -116.5 q-43 -55.5 -73 -109.5 q-30 -54 -30 -98 q0 -74 43 -116 q43 -42 115 -42 q22 0 42.5 3 q20.5 3 35.5 6.5 q15 3.5 39.5 13.5 q24.5 10 37.5 16 q13 6 48 22 q35 16 53 25 l80 -162 q-70 -32 -116 -50.5 q-46 -18.5 -116 -35 q-70 -16.5 -135 -16.5 q-389 0 -389 307 ZM354 881 q0 67 41 111 q41 44 115 44 q68 0 107.5 -43.5 q39.5 -43.5 39.5 -107.5 q0 -69 -40.5 -113.5 q-40.5 -44.5 -112.5 -44.5 q-71 0 -110.5 42.5 q-39.5 42.5 -39.5 111.5 Z" /><glyph glyph-name="Agrave" unicode="à" d="M-10 0 l532 1386 l193 0 l534 -1386 l-260 0 l-127 362 l-500 0 l-131 -362 l-241 0 ZM92 1733 l107 168 l465 -312 l-58 -119 l-18 6 q-17 5 -50 16 q-33 11 -73.5 26.5 q-40.5 15.5 -90 38 q-49.5 22.5 -97 48 q-47.5 25.5 -97 59 q-49.5 33.5 -88.5 69.5 ZM428 543 l371 0 q-106 302 -185 571 q-101 -329 -186 -571 Z" /><glyph glyph-name="Aacute" unicode="á" d="M-10 0 l532 1386 l193 0 l534 -1386 l-260 0 l-127 362 l-500 0 l-131 -362 l-241 0 ZM428 543 l371 0 q-106 302 -185 571 q-101 -329 -186 -571 ZM555 1589 l465 312 l106 -168 q-39 -36 -88.5 -69.5 q-49.5 -33.5 -97 -59 q-47.5 -25.5 -97 -48 q-49.5 -22.5 -90 -38 q-40.5 -15.5 -73.5 -26.5 q-33 -11 -50 -16 l-18 -6 l-57 119 Z" /><glyph glyph-name="Acircumflex" unicode="â" d="M-10 0 l532 1386 l193 0 l534 -1386 l-260 0 l-127 362 l-500 0 l-131 -362 l-241 0 ZM209 1579 l405 322 l406 -322 l-90 -109 q3 -3 -41.5 18.5 q-44.5 21.5 -123.5 67.5 q-79 46 -151 99 q-73 -53 -151.5 -99 q-78.5 -46 -122.5 -67.5 q-44 -21.5 -41 -18.5 l-90 109 ZM428 543 l371 0 q-106 302 -185 571 q-101 -329 -186 -571 Z" /><glyph glyph-name="Atilde" unicode="ã" d="M-10 0 l532 1386 l193 0 l534 -1386 l-260 0 l-127 362 l-500 0 l-131 -362 l-241 0 ZM281 1556 l0 152 q8 5 22 13 q14 8 56 21 q42 13 83 13 q50 0 157 -20.5 q107 -20.5 157 -20.5 q41 0 82 7 q41 7 62 15 l20 7 l0 -152 q-8 -5 -22.5 -13 q-14.5 -8 -57.5 -21 q-43 -13 -84 -13 q-50 0 -157 20.5 q-107 20.5 -157 20.5 q-41 0 -81 -7.5 q-40 -7.5 -60 -14.5 l-20 -7 ZM428 543 l371 0 q-106 302 -185 571 q-101 -329 -186 -571 Z" /><glyph glyph-name="Adieresis" unicode="ä" d="M-10 0 l532 1386 l193 0 l534 -1386 l-260 0 l-127 362 l-500 0 l-131 -362 l-241 0 ZM287 1657 q0 59 34 96 q34 37 95 37 q59 0 92 -36 q33 -36 33 -93 q0 -58 -34.5 -94.5 q-34.5 -36.5 -96.5 -36.5 q-57 0 -90 36.5 q-33 36.5 -33 90.5 ZM428 543 l371 0 q-106 302 -185 571 q-101 -329 -186 -571 ZM694 1657 q0 59 34 96 q34 37 97 37 q59 0 92 -36 q33 -36 33 -93 q0 -58 -34.5 -94.5 q-34.5 -36.5 -96.5 -36.5 q-58 0 -91.5 36 q-33.5 36 -33.5 91 Z" /><glyph glyph-name="Aring" unicode="å" d="M-10 0 l506 1319 q-82 59 -82 170 q0 88 59 146.5 q59 58.5 148 58.5 q88 0 144 -58 q56 -58 56 -147 q0 -106 -82 -168 l510 -1321 l-260 0 l-127 362 l-500 0 l-131 -362 l-241 0 ZM428 543 l371 0 q-106 302 -185 571 q-101 -329 -186 -571 ZM528 1491 q0 -39 15.5 -67.5 q15.5 -28.5 44.5 -37.5 l55 0 q64 16 64 103 q0 46 -24.5 74 q-24.5 28 -66.5 28 q-41 0 -64.5 -26.5 q-23.5 -26.5 -23.5 -73.5 Z" /><glyph glyph-name="AE" unicode="æ" d="M-10 0 l839 1386 l881 0 l0 -184 l-580 0 l0 -387 l478 0 l-31 -186 l-447 0 l0 -445 l611 0 l0 -184 l-850 0 l0 362 l-412 0 l-207 -362 l-282 0 ZM582 543 l309 0 l0 594 q-7 -16 -309 -594 Z" /><glyph glyph-name="Ccedilla" unicode="ç" d="M96 676 q0 219 64.5 380.5 q64.5 161.5 202 255 q137.5 93.5 337.5 93.5 q201 0 330 -148 l-125 -149 q-103 109 -229 109 q-85 0 -147.5 -40 q-62.5 -40 -98.5 -112 q-36 -72 -53 -163 q-17 -91 -17 -204 q0 -114 16 -203.5 q16 -89.5 52.5 -164 q36.5 -74.5 103.5 -114.5 q67 -40 162 -40 q43 0 90.5 8 q47.5 8 78.5 17 q31 9 59 18 q28 9 30 10 l58 -172 q1 0 -13 -5.5 q-14 -5.5 -40.5 -14.5 q-26.5 -9 -61 -18 q-34.5 -9 -83 -17.5 q-48.5 -8.5 -97.5 -11.5 l-19 -86 q83 -6 134 -48 q51 -42 51 -114 q0 -43 -14.5 -77 q-14.5 -34 -38 -54.5 q-23.5 -20.5 -55.5 -33.5 q-32 -13 -64 -18 q-32 -5 -68 -5 q-89 0 -178 34 l33 111 q84 -27 131 -27 q102 0 102 64 q0 43 -59 66.5 q-59 23.5 -129 23.5 l41 166 q-239 20 -362.5 195 q-123.5 175 -123.5 489 Z" /><glyph glyph-name="Egrave" unicode="è" d="M57 1733 l107 168 l465 -312 l-58 -119 l-17 6 q-18 5 -51 16 q-33 11 -73.5 26.5 q-40.5 15.5 -90 38 q-49.5 22.5 -97 48 q-47.5 25.5 -97 59 q-49.5 33.5 -88.5 69.5 ZM143 0 l0 1386 l824 0 l0 -184 l-580 0 l0 -387 l477 0 l-30 -186 l-447 0 l0 -445 l610 0 l0 -184 l-854 0 Z" /><glyph glyph-name="Eacute" unicode="é" d="M143 0 l0 1386 l824 0 l0 -184 l-580 0 l0 -387 l477 0 l-30 -186 l-447 0 l0 -445 l610 0 l0 -184 l-854 0 ZM522 1589 l465 312 l107 -168 q-39 -36 -88.5 -69.5 q-49.5 -33.5 -97 -59 q-47.5 -25.5 -97 -48 q-49.5 -22.5 -90 -38 q-40.5 -15.5 -73.5 -26.5 q-33 -11 -50 -16 l-18 -6 l-58 119 Z" /><glyph glyph-name="Ecircumflex" unicode="ê" d="M143 0 l0 1386 l824 0 l0 -184 l-580 0 l0 -387 l477 0 l-30 -186 l-447 0 l0 -445 l610 0 l0 -184 l-854 0 ZM174 1579 l406 322 l405 -322 l-90 -109 q3 -3 -41.5 18.5 q-44.5 21.5 -123 67.5 q-78.5 46 -150.5 99 q-73 -53 -152 -99 q-79 -46 -123 -67.5 q-44 -21.5 -41 -18.5 l-90 109 Z" /><glyph glyph-name="Edieresis" unicode="ë" d="M143 0 l0 1386 l824 0 l0 -184 l-580 0 l0 -387 l477 0 l-30 -186 l-447 0 l0 -445 l610 0 l0 -184 l-854 0 ZM193 1657 q0 59 34 96 q34 37 95 37 q58 0 91 -36 q33 -36 33 -93 q0 -58 -34.5 -94.5 q-34.5 -36.5 -96.5 -36.5 q-57 0 -89.5 36 q-32.5 36 -32.5 91 ZM600 1657 q0 59 34 96 q34 37 97 37 q59 0 92 -36 q33 -36 33 -93 q0 -58 -34.5 -94.5 q-34.5 -36.5 -96.5 -36.5 q-58 0 -91.5 36 q-33.5 36 -33.5 91 Z" /><glyph glyph-name="Igrave" unicode="ì" d="M-256 1733 l106 168 l465 -312 l-57 -119 l-18 6 q-17 5 -50 16 q-33 11 -73.5 26.5 q-40.5 15.5 -90 38 q-49.5 22.5 -97 48 q-47.5 25.5 -97 59 q-49.5 33.5 -88.5 69.5 ZM143 0 l0 1386 l244 0 l0 -1386 l-244 0 Z" /><glyph glyph-name="Iacute" unicode="í" d="M143 0 l0 1386 l244 0 l0 -1386 l-244 0 ZM209 1589 l465 312 l106 -168 q-39 -36 -88.5 -69.5 q-49.5 -33.5 -97 -59 q-47.5 -25.5 -97 -48 q-49.5 -22.5 -90 -38 q-40.5 -15.5 -73.5 -26.5 q-33 -11 -50 -16 l-18 -6 l-57 119 Z" /><glyph glyph-name="Icircumflex" unicode="î" d="M-139 1579 l405 322 l406 -322 l-90 -109 q3 -3 -41.5 18.5 q-44.5 21.5 -123.5 67.5 q-79 46 -151 99 q-73 -53 -151.5 -99 q-78.5 -46 -122.5 -67.5 q-44 -21.5 -41 -18.5 l-90 109 ZM143 0 l0 1386 l244 0 l0 -1386 l-244 0 Z" /><glyph glyph-name="Idieresis" unicode="ï" d="M-66 1657 q0 59 34 96 q34 37 95 37 q59 0 92 -36 q33 -36 33 -93 q0 -58 -34.5 -94.5 q-34.5 -36.5 -96.5 -36.5 q-57 0 -90 36.5 q-33 36.5 -33 90.5 ZM143 0 l0 1386 l244 0 l0 -1386 l-244 0 ZM342 1657 q0 59 34 96 q34 37 97 37 q59 0 92 -36 q33 -36 33 -93 q0 -58 -34.5 -94.5 q-34.5 -36.5 -96.5 -36.5 q-58 0 -91.5 36 q-33.5 36 -33.5 91 Z" /><glyph glyph-name="Eth" unicode="ð" d="M0 621 l0 180 l143 0 l0 585 q10 0 169 2.5 q159 2.5 233 2.5 q684 0 684 -689 q0 -706 -711 -706 q-100 0 -234.5 2 q-134.5 2 -140.5 2 l0 621 l-143 0 ZM387 180 q31 -2 162 -2 q212 0 314 125.5 q102 125.5 102 376.5 q0 528 -449 528 q-35 0 -78 -1 q-43 -1 -51 -1 l0 -405 l369 0 l0 -180 l-369 0 l0 -441 Z" /><glyph glyph-name="Ntilde" unicode="ñ" d="M143 0 l0 1391 l191 0 l481 -721 q38 -55 166 -254 q-12 176 -12 246 l-6 724 l243 0 l0 -1388 l-202 0 l-467 729 q-11 17 -172 272 q16 -176 16 -274 l6 -725 l-244 0 ZM354 1573 l0 151 q8 5 22 13 q14 8 56.5 21.5 q42.5 13.5 83.5 13.5 q50 0 156.5 -20.5 q106.5 -20.5 156.5 -20.5 q41 0 82 7 q41 7 61 14 l21 7 l0 -151 q-8 -5 -22.5 -13 q-14.5 -8 -57.5 -21 q-43 -13 -84 -13 q-50 0 -156.5 20.5 q-106.5 20.5 -156.5 20.5 q-41 0 -81.5 -7 q-40.5 -7 -60.5 -15 l-20 -7 Z" /><glyph glyph-name="Ograve" unicode="ò" d="M92 676 q0 163 36.5 295 q36.5 132 109.5 229.5 q73 97.5 190 151 q117 53.5 270 53.5 q151 0 262 -48 q111 -48 180 -140.5 q69 -92.5 102.5 -219.5 q33.5 -127 33.5 -292 q0 -162 -36.5 -292 q-36.5 -130 -109.5 -225.5 q-73 -95.5 -189.5 -147.5 q-116.5 -52 -268.5 -52 q-580 0 -580 688 ZM158 1733 l106 168 l465 -312 l-57 -119 l-18 6 q-17 5 -50 16 q-33 11 -73.5 26.5 q-40.5 15.5 -90 38 q-49.5 22.5 -97 48 q-47.5 25.5 -97 59 q-49.5 33.5 -88.5 69.5 ZM356 698 q0 -89 8.5 -161 q8.5 -72 31.5 -141.5 q23 -69.5 60.5 -116 q37.5 -46.5 99.5 -75 q62 -28.5 144 -28.5 q314 0 314 508 q0 89 -8.5 162 q-8.5 73 -31.5 144 q-23 71 -60.5 119.5 q-37.5 48.5 -99.5 78 q-62 29.5 -144 29.5 q-314 0 -314 -519 Z" /><glyph glyph-name="Oacute" unicode="ó" d="M92 676 q0 163 36.5 295 q36.5 132 109.5 229.5 q73 97.5 190 151 q117 53.5 270 53.5 q151 0 262 -48 q111 -48 180 -140.5 q69 -92.5 102.5 -219.5 q33.5 -127 33.5 -292 q0 -162 -36.5 -292 q-36.5 -130 -109.5 -225.5 q-73 -95.5 -189.5 -147.5 q-116.5 -52 -268.5 -52 q-580 0 -580 688 ZM356 698 q0 -89 8.5 -161 q8.5 -72 31.5 -141.5 q23 -69.5 60.5 -116 q37.5 -46.5 99.5 -75 q62 -28.5 144 -28.5 q314 0 314 508 q0 89 -8.5 162 q-8.5 73 -31.5 144 q-23 71 -60.5 119.5 q-37.5 48.5 -99.5 78 q-62 29.5 -144 29.5 q-314 0 -314 -519 ZM621 1589 l464 312 l107 -168 q-39 -36 -88.5 -69.5 q-49.5 -33.5 -97 -59 q-47.5 -25.5 -97 -48 q-49.5 -22.5 -90 -38 q-40.5 -15.5 -73.5 -26.5 q-33 -11 -50 -16 l-18 -6 l-57 119 Z" /><glyph glyph-name="Ocircumflex" unicode="ô" d="M92 676 q0 163 36.5 295 q36.5 132 109.5 229.5 q73 97.5 190 151 q117 53.5 270 53.5 q151 0 262 -48 q111 -48 180 -140.5 q69 -92.5 102.5 -219.5 q33.5 -127 33.5 -292 q0 -162 -36.5 -292 q-36.5 -130 -109.5 -225.5 q-73 -95.5 -189.5 -147.5 q-116.5 -52 -268.5 -52 q-580 0 -580 688 ZM274 1579 l406 322 l405 -322 l-90 -109 q3 -3 -41.5 18.5 q-44.5 21.5 -123 67.5 q-78.5 46 -150.5 99 q-73 -53 -151.5 -99 q-78.5 -46 -122.5 -67.5 q-44 -21.5 -41 -18.5 l-91 109 ZM356 698 q0 -89 8.5 -161 q8.5 -72 31.5 -141.5 q23 -69.5 60.5 -116 q37.5 -46.5 99.5 -75 q62 -28.5 144 -28.5 q314 0 314 508 q0 89 -8.5 162 q-8.5 73 -31.5 144 q-23 71 -60.5 119.5 q-37.5 48.5 -99.5 78 q-62 29.5 -144 29.5 q-314 0 -314 -519 Z" /><glyph glyph-name="Otilde" unicode="õ" d="M92 676 q0 163 36.5 295 q36.5 132 109.5 229.5 q73 97.5 190 151 q117 53.5 270 53.5 q151 0 262 -48 q111 -48 180 -140.5 q69 -92.5 102.5 -219.5 q33.5 -127 33.5 -292 q0 -162 -36.5 -292 q-36.5 -130 -109.5 -225.5 q-73 -95.5 -189.5 -147.5 q-116.5 -52 -268.5 -52 q-580 0 -580 688 ZM346 1556 l0 152 q8 5 22 13 q14 8 56.5 21 q42.5 13 83.5 13 q50 0 156.5 -20.5 q106.5 -20.5 156.5 -20.5 q41 0 82 7 q41 7 61 15 l21 7 l0 -152 q-8 -5 -22.5 -13 q-14.5 -8 -57.5 -21 q-43 -13 -84 -13 q-50 0 -156.5 20.5 q-106.5 20.5 -156.5 20.5 q-41 0 -81.5 -7.5 q-40.5 -7.5 -60.5 -14.5 l-20 -7 ZM356 698 q0 -89 8.5 -161 q8.5 -72 31.5 -141.5 q23 -69.5 60.5 -116 q37.5 -46.5 99.5 -75 q62 -28.5 144 -28.5 q314 0 314 508 q0 89 -8.5 162 q-8.5 73 -31.5 144 q-23 71 -60.5 119.5 q-37.5 48.5 -99.5 78 q-62 29.5 -144 29.5 q-314 0 -314 -519 Z" /><glyph glyph-name="Odieresis" unicode="ö" d="M92 676 q0 163 36.5 295 q36.5 132 109.5 229.5 q73 97.5 190 151 q117 53.5 270 53.5 q151 0 262 -48 q111 -48 180 -140.5 q69 -92.5 102.5 -219.5 q33.5 -127 33.5 -292 q0 -162 -36.5 -292 q-36.5 -130 -109.5 -225.5 q-73 -95.5 -189.5 -147.5 q-116.5 -52 -268.5 -52 q-580 0 -580 688 ZM352 1657 q0 59 34 96 q34 37 95 37 q59 0 92 -36 q33 -36 33 -93 q0 -58 -34.5 -94.5 q-34.5 -36.5 -96.5 -36.5 q-57 0 -90 36.5 q-33 36.5 -33 90.5 ZM356 698 q0 -89 8.5 -161 q8.5 -72 31.5 -141.5 q23 -69.5 60.5 -116 q37.5 -46.5 99.5 -75 q62 -28.5 144 -28.5 q314 0 314 508 q0 89 -8.5 162 q-8.5 73 -31.5 144 q-23 71 -60.5 119.5 q-37.5 48.5 -99.5 78 q-62 29.5 -144 29.5 q-314 0 -314 -519 ZM760 1657 q0 59 34 96 q34 37 97 37 q59 0 92 -36 q33 -36 33 -93 q0 -58 -34.5 -94.5 q-34.5 -36.5 -96.5 -36.5 q-58 0 -91.5 36 q-33.5 36 -33.5 91 Z" /><glyph glyph-name="multiply" unicode="×" d="M123 348 l276 275 l-262 262 l125 129 l262 -266 l269 270 l133 -137 l-267 -267 l275 -272 l-125 -129 l-274 276 l-279 -276 l-133 135 Z" /><glyph glyph-name="Oslash" unicode="ø" d="M92 676 q0 163 36.5 295 q36.5 132 109.5 229.5 q73 97.5 190 151 q117 53.5 270 53.5 q84 0 150 -14 l51 129 l201 -82 l-53 -131 q229 -167 229 -602 q0 -162 -36.5 -292 q-36.5 -130 -109.5 -225.5 q-73 -95.5 -189.5 -147.5 q-116.5 -52 -268.5 -52 q-84 0 -154 12 l-51 -129 l-199 82 l51 129 q-227 159 -227 594 ZM356 698 q0 -240 66 -364 l350 868 q-58 15 -102 15 q-314 0 -314 -519 ZM594 188 q46 -12 106 -12 q314 0 314 508 q0 242 -68 373 l-352 -869 Z" /><glyph glyph-name="Ugrave" unicode="ù" d="M123 510 l0 876 l242 0 l0 -858 q0 -352 297 -352 q136 0 204 91.5 q68 91.5 68 260.5 l0 858 l244 0 l0 -876 q0 -111 -28.5 -202 q-28.5 -91 -90 -164.5 q-61.5 -73.5 -169.5 -114.5 q-108 -41 -255 -41 q-112 0 -200.5 27.5 q-88.5 27.5 -146.5 74.5 q-58 47 -95.5 114.5 q-37.5 67.5 -53.5 142.5 q-16 75 -16 163 ZM129 1733 l107 168 l464 -312 l-57 -119 l-17 6 q-18 5 -51 16 q-33 11 -73.5 26.5 q-40.5 15.5 -90 38 q-49.5 22.5 -97 48 q-47.5 25.5 -97 59 q-49.5 33.5 -88.5 69.5 Z" /><glyph glyph-name="Uacute" unicode="ú" d="M123 510 l0 876 l242 0 l0 -858 q0 -352 297 -352 q136 0 204 91.5 q68 91.5 68 260.5 l0 858 l244 0 l0 -876 q0 -111 -28.5 -202 q-28.5 -91 -90 -164.5 q-61.5 -73.5 -169.5 -114.5 q-108 -41 -255 -41 q-112 0 -200.5 27.5 q-88.5 27.5 -146.5 74.5 q-58 47 -95.5 114.5 q-37.5 67.5 -53.5 142.5 q-16 75 -16 163 ZM594 1589 l465 312 l106 -168 q-39 -36 -88.5 -69.5 q-49.5 -33.5 -97 -59 q-47.5 -25.5 -97 -48 q-49.5 -22.5 -90 -38 q-40.5 -15.5 -73.5 -26.5 q-33 -11 -51 -16 l-17 -6 l-57 119 Z" /><glyph glyph-name="Ucircumflex" unicode="û" d="M123 510 l0 876 l242 0 l0 -858 q0 -352 297 -352 q136 0 204 91.5 q68 91.5 68 260.5 l0 858 l244 0 l0 -876 q0 -111 -28.5 -202 q-28.5 -91 -90 -164.5 q-61.5 -73.5 -169.5 -114.5 q-108 -41 -255 -41 q-112 0 -200.5 27.5 q-88.5 27.5 -146.5 74.5 q-58 47 -95.5 114.5 q-37.5 67.5 -53.5 142.5 q-16 75 -16 163 ZM246 1579 l405 322 l406 -322 l-90 -109 q3 -3 -41.5 18.5 q-44.5 21.5 -123.5 67.5 q-79 46 -151 99 q-73 -53 -151.5 -99 q-78.5 -46 -122.5 -67.5 q-44 -21.5 -41 -18.5 l-90 109 Z" /><glyph glyph-name="Udieresis" unicode="ü" d="M123 510 l0 876 l242 0 l0 -858 q0 -352 297 -352 q136 0 204 91.5 q68 91.5 68 260.5 l0 858 l244 0 l0 -876 q0 -111 -28.5 -202 q-28.5 -91 -90 -164.5 q-61.5 -73.5 -169.5 -114.5 q-108 -41 -255 -41 q-112 0 -200.5 27.5 q-88.5 27.5 -146.5 74.5 q-58 47 -95.5 114.5 q-37.5 67.5 -53.5 142.5 q-16 75 -16 163 ZM317 1657 q0 59 34 96 q34 37 95 37 q59 0 92 -36 q33 -36 33 -93 q0 -58 -34.5 -94.5 q-34.5 -36.5 -96.5 -36.5 q-57 0 -90 36.5 q-33 36.5 -33 90.5 ZM725 1657 q0 59 34 96 q34 37 97 37 q59 0 92 -36 q33 -36 33 -93 q0 -58 -34.5 -94.5 q-34.5 -36.5 -96.5 -36.5 q-58 0 -91.5 36 q-33.5 36 -33.5 91 Z" /><glyph glyph-name="Yacute" unicode="ý" d="M0 1386 l264 0 l291 -628 l297 628 l258 0 l-436 -866 l0 -520 l-244 0 l0 530 l-430 856 ZM502 1589 l465 312 l106 -168 q-39 -36 -88.5 -69.5 q-49.5 -33.5 -97 -59 q-47.5 -25.5 -97 -48 q-49.5 -22.5 -90 -38 q-40.5 -15.5 -73.5 -26.5 q-33 -11 -51 -16 l-17 -6 l-57 119 Z" /><glyph glyph-name="Thorn" unicode="þ" d="M143 0 l0 1386 l244 0 l0 -249 l168 0 q249 0 370.5 -107 q121.5 -107 121.5 -309 q0 -200 -132.5 -315 q-132.5 -115 -384.5 -115 l-143 0 l0 -291 l-244 0 ZM387 471 l158 0 q123 0 181 66 q58 66 58 176 q0 52 -13 94.5 q-13 42.5 -41.5 79.5 q-28.5 37 -81 57.5 q-52.5 20.5 -124.5 20.5 q-104 0 -137 -2 l0 -492 Z" /><glyph glyph-name="germandbls" unicode="ß" d="M-10 -315 q49 25 86 55 q37 30 58.5 63 q21.5 33 35 60.5 q13.5 27.5 18.5 63 q5 35.5 6 54 q1 18.5 1 48.5 l0 950 q0 231 123 368.5 q123 137.5 356 137.5 q176 0 268 -83.5 q92 -83.5 92 -203.5 q0 -55 -17.5 -101 q-17.5 -46 -43.5 -74.5 q-26 -28.5 -56.5 -55 q-30.5 -26.5 -56.5 -46 q-26 -19.5 -43.5 -45 q-17.5 -25.5 -17.5 -53.5 q0 -38 17.5 -70 q17.5 -32 46 -56.5 q28.5 -24.5 63 -49 q34.5 -24.5 68.5 -55 q34 -30.5 62.5 -67 q28.5 -36.5 46 -91.5 q17.5 -55 17.5 -123 q0 -145 -104 -235 q-104 -90 -273 -90 q-59 0 -122.5 18 q-63.5 18 -91.5 32 q-28 14 -46 25 l70 154 q106 -53 160 -53 q82 0 127 32.5 q45 32.5 45 98.5 q0 39 -16.5 71 q-16.5 32 -43.5 55.5 q-27 23.5 -59 46.5 q-32 23 -64.5 51 q-32.5 28 -59.5 62.5 q-27 34.5 -43.5 87 q-16.5 52.5 -16.5 117.5 q0 56 23 104.5 q23 48.5 55 82.5 q32 34 64.5 65 q32.5 31 55.5 67.5 q23 36.5 23 74.5 q0 65 -46.5 97 q-46.5 32 -115.5 32 q-60 0 -103 -27 q-43 -27 -66 -73.5 q-23 -46.5 -33.5 -98.5 q-10.5 -52 -10.5 -113 l0 -944 q0 -60 -7.5 -111.5 q-7.5 -51.5 -25 -94 q-17.5 -42.5 -35 -76 q-17.5 -33.5 -47.5 -64 q-30 -30.5 -52 -50.5 q-22 -20 -60.5 -43.5 q-38.5 -23.5 -60 -35.5 q-21.5 -12 -62.5 -33 l-88 142 Z" /><glyph glyph-name="agrave" unicode="à" d="M72 496 q0 235 136 387.5 q136 152.5 353 152.5 q30 0 63.5 -2.5 q33.5 -2.5 64.5 -6 q31 -3.5 64.5 -9 q33.5 -5.5 60 -10.5 q26.5 -5 53 -10.5 q26.5 -5.5 43 -9.5 q16.5 -4 31 -7.5 q14.5 -3.5 15.5 -3.5 l0 -483 q0 -91 10 -169 q10 -78 25 -125.5 q15 -47.5 29.5 -81.5 q14.5 -34 24.5 -48 l10 -13 l-183 -73 q-4 4 -10.5 10.5 q-6.5 6.5 -23 30.5 q-16.5 24 -30 51 q-13.5 27 -25.5 70.5 q-12 43.5 -15 89.5 q-34 -125 -112 -186.5 q-78 -61.5 -207 -61.5 q-187 0 -282 135.5 q-95 135.5 -95 372.5 ZM143 1450 l156 145 l348 -387 l-98 -106 q-10 6 -27.5 17 q-17.5 11 -68 47.5 q-50.5 36.5 -98 74.5 q-47.5 38 -107.5 95.5 q-60 57.5 -105 113.5 ZM324 516 q0 -55 2 -94 q2 -39 7 -84 q5 -45 16.5 -75.5 q11.5 -30.5 28.5 -57.5 q17 -27 45 -40 q28 -13 64 -13 q65 0 120 59 q55 59 85.5 151 q30.5 92 30.5 193 l0 295 q-74 22 -135 22 q-75 0 -127.5 -26 q-52.5 -26 -81.5 -75 q-29 -49 -42 -111 q-13 -62 -13 -144 Z" /><glyph glyph-name="aacute" unicode="á" d="M72 496 q0 235 136 387.5 q136 152.5 353 152.5 q30 0 63.5 -2.5 q33.5 -2.5 64.5 -6 q31 -3.5 64.5 -9 q33.5 -5.5 60 -10.5 q26.5 -5 53 -10.5 q26.5 -5.5 43 -9.5 q16.5 -4 31 -7.5 q14.5 -3.5 15.5 -3.5 l0 -483 q0 -91 10 -169 q10 -78 25 -125.5 q15 -47.5 29.5 -81.5 q14.5 -34 24.5 -48 l10 -13 l-183 -73 q-4 4 -10.5 10.5 q-6.5 6.5 -23 30.5 q-16.5 24 -30 51 q-13.5 27 -25.5 70.5 q-12 43.5 -15 89.5 q-34 -125 -112 -186.5 q-78 -61.5 -207 -61.5 q-187 0 -282 135.5 q-95 135.5 -95 372.5 ZM324 516 q0 -55 2 -94 q2 -39 7 -84 q5 -45 16.5 -75.5 q11.5 -30.5 28.5 -57.5 q17 -27 45 -40 q28 -13 64 -13 q65 0 120 59 q55 59 85.5 151 q30.5 92 30.5 193 l0 295 q-74 22 -135 22 q-75 0 -127.5 -26 q-52.5 -26 -81.5 -75 q-29 -49 -42 -111 q-13 -62 -13 -144 ZM430 1208 l348 387 l156 -145 q-72 -89 -173 -176 q-101 -87 -166 -130 l-65 -42 l-100 106 Z" /><glyph glyph-name="acircumflex" unicode="â" d="M72 496 q0 235 136 387.5 q136 152.5 353 152.5 q30 0 63.5 -2.5 q33.5 -2.5 64.5 -6 q31 -3.5 64.5 -9 q33.5 -5.5 60 -10.5 q26.5 -5 53 -10.5 q26.5 -5.5 43 -9.5 q16.5 -4 31 -7.5 q14.5 -3.5 15.5 -3.5 l0 -483 q0 -91 10 -169 q10 -78 25 -125.5 q15 -47.5 29.5 -81.5 q14.5 -34 24.5 -48 l10 -13 l-183 -73 q-4 4 -10.5 10.5 q-6.5 6.5 -23 30.5 q-16.5 24 -30 51 q-13.5 27 -25.5 70.5 q-12 43.5 -15 89.5 q-34 -125 -112 -186.5 q-78 -61.5 -207 -61.5 q-187 0 -282 135.5 q-95 135.5 -95 372.5 ZM178 1212 l385 383 l383 -383 l-88 -110 l-8 4 q-7 5 -22.5 15 q-15.5 10 -36 23 q-20.5 13 -47.5 31.5 q-27 18.5 -55 39 q-28 20.5 -61.5 47 q-33.5 26.5 -64.5 53.5 q-125 -107 -295 -212 q-2 -1 -2 -1 l-88 110 ZM324 516 q0 -55 2 -94 q2 -39 7 -84 q5 -45 16.5 -75.5 q11.5 -30.5 28.5 -57.5 q17 -27 45 -40 q28 -13 64 -13 q65 0 120 59 q55 59 85.5 151 q30.5 92 30.5 193 l0 295 q-74 22 -135 22 q-75 0 -127.5 -26 q-52.5 -26 -81.5 -75 q-29 -49 -42 -111 q-13 -62 -13 -144 Z" /><glyph glyph-name="atilde" unicode="ã" d="M72 496 q0 235 136 387.5 q136 152.5 353 152.5 q30 0 63.5 -2.5 q33.5 -2.5 64.5 -6 q31 -3.5 64.5 -9 q33.5 -5.5 60 -10.5 q26.5 -5 53 -10.5 q26.5 -5.5 43 -9.5 q16.5 -4 31 -7.5 q14.5 -3.5 15.5 -3.5 l0 -483 q0 -91 10 -169 q10 -78 25 -125.5 q15 -47.5 29.5 -81.5 q14.5 -34 24.5 -48 l10 -13 l-183 -73 q-4 4 -10.5 10.5 q-6.5 6.5 -23 30.5 q-16.5 24 -30 51 q-13.5 27 -25.5 70.5 q-12 43.5 -15 89.5 q-34 -125 -112 -186.5 q-78 -61.5 -207 -61.5 q-187 0 -282 135.5 q-95 135.5 -95 372.5 ZM217 1206 l0 152 q8 5 22 13 q14 8 56.5 21 q42.5 13 83.5 13 q50 0 156.5 -20.5 q106.5 -20.5 156.5 -20.5 q41 0 82 7 q41 7 62 15 l20 7 l0 -152 q-8 -5 -22.5 -13 q-14.5 -8 -57.5 -21 q-43 -13 -84 -13 q-50 0 -156.5 20.5 q-106.5 20.5 -156.5 20.5 q-41 0 -81.5 -7.5 q-40.5 -7.5 -60.5 -14.5 l-20 -7 ZM324 516 q0 -55 2 -94 q2 -39 7 -84 q5 -45 16.5 -75.5 q11.5 -30.5 28.5 -57.5 q17 -27 45 -40 q28 -13 64 -13 q65 0 120 59 q55 59 85.5 151 q30.5 92 30.5 193 l0 295 q-74 22 -135 22 q-75 0 -127.5 -26 q-52.5 -26 -81.5 -75 q-29 -49 -42 -111 q-13 -62 -13 -144 Z" /><glyph glyph-name="adieresis" unicode="ä" d="M72 496 q0 235 136 387.5 q136 152.5 353 152.5 q30 0 63.5 -2.5 q33.5 -2.5 64.5 -6 q31 -3.5 64.5 -9 q33.5 -5.5 60 -10.5 q26.5 -5 53 -10.5 q26.5 -5.5 43 -9.5 q16.5 -4 31 -7.5 q14.5 -3.5 15.5 -3.5 l0 -483 q0 -91 10 -169 q10 -78 25 -125.5 q15 -47.5 29.5 -81.5 q14.5 -34 24.5 -48 l10 -13 l-183 -73 q-4 4 -10.5 10.5 q-6.5 6.5 -23 30.5 q-16.5 24 -30 51 q-13.5 27 -25.5 70.5 q-12 43.5 -15 89.5 q-34 -125 -112 -186.5 q-78 -61.5 -207 -61.5 q-187 0 -282 135.5 q-95 135.5 -95 372.5 ZM215 1329 q0 59 34 96 q34 37 95 37 q59 0 92 -36 q33 -36 33 -93 q0 -58 -34.5 -94.5 q-34.5 -36.5 -96.5 -36.5 q-57 0 -90 36.5 q-33 36.5 -33 90.5 ZM324 516 q0 -55 2 -94 q2 -39 7 -84 q5 -45 16.5 -75.5 q11.5 -30.5 28.5 -57.5 q17 -27 45 -40 q28 -13 64 -13 q65 0 120 59 q55 59 85.5 151 q30.5 92 30.5 193 l0 295 q-74 22 -135 22 q-75 0 -127.5 -26 q-52.5 -26 -81.5 -75 q-29 -49 -42 -111 q-13 -62 -13 -144 ZM623 1329 q0 59 34 96 q34 37 97 37 q59 0 92 -36 q33 -36 33 -93 q0 -58 -34.5 -94.5 q-34.5 -36.5 -96.5 -36.5 q-58 0 -91.5 36 q-33.5 36 -33.5 91 Z" /><glyph glyph-name="aring" unicode="å" d="M72 496 q0 235 136 387.5 q136 152.5 353 152.5 q30 0 63.5 -2.5 q33.5 -2.5 64.5 -6 q31 -3.5 64.5 -9 q33.5 -5.5 60 -10.5 q26.5 -5 53 -10.5 q26.5 -5.5 43 -9.5 q16.5 -4 31 -7.5 q14.5 -3.5 15.5 -3.5 l0 -483 q0 -91 10 -169 q10 -78 25 -125.5 q15 -47.5 29.5 -81.5 q14.5 -34 24.5 -48 l10 -13 l-183 -73 q-4 4 -10.5 10.5 q-6.5 6.5 -23 30.5 q-16.5 24 -30 51 q-13.5 27 -25.5 70.5 q-12 43.5 -15 89.5 q-34 -125 -112 -186.5 q-78 -61.5 -207 -61.5 q-187 0 -282 135.5 q-95 135.5 -95 372.5 ZM324 516 q0 -55 2 -94 q2 -39 7 -84 q5 -45 16.5 -75.5 q11.5 -30.5 28.5 -57.5 q17 -27 45 -40 q28 -13 64 -13 q65 0 120 59 q55 59 85.5 151 q30.5 92 30.5 193 l0 295 q-74 22 -135 22 q-75 0 -127.5 -26 q-52.5 -26 -81.5 -75 q-29 -49 -42 -111 q-13 -62 -13 -144 ZM401 1175.5 q-57 59.5 -57 147.5 q0 88 59 146.5 q59 58.5 148 58.5 q88 0 144.5 -58 q56.5 -58 56.5 -147 q0 -88 -59 -147.5 q-59 -59.5 -148 -59.5 q-87 0 -144 59.5 ZM482.5 1398.5 q-23.5 -26.5 -23.5 -73.5 q0 -47 24 -77.5 q24 -30.5 64 -30.5 q43 0 66.5 28 q23.5 28 23.5 78 q0 46 -24 74 q-24 28 -66 28 q-41 0 -64.5 -26.5 Z" /><glyph glyph-name="ae" unicode="æ" d="M72 496 q0 235 136 387.5 q136 152.5 353 152.5 q170 0 336 -71 q116 79 277 79 q174 0 258 -79.5 q84 -79.5 84 -210.5 q0 -152 -162 -259 q-162 -107 -426 -110 q6 -51 19 -90 q13 -39 38.5 -72.5 q25.5 -33.5 68 -51 q42.5 -17.5 101.5 -17.5 q53 0 125.5 18 q72.5 18 119.5 36 l46 17 l61 -145 q-7 -4 -20.5 -10 q-13.5 -6 -55 -22.5 q-41.5 -16.5 -84.5 -29 q-43 -12.5 -105 -22.5 q-62 -10 -120 -10 q-270 0 -377 190 q-77 -188 -296 -188 q-187 0 -282 135.5 q-95 135.5 -95 372.5 ZM324 516 q0 -55 2 -94 q2 -39 7 -84 q5 -45 16.5 -75.5 q11.5 -30.5 28.5 -57.5 q17 -27 45 -40 q28 -13 64 -13 q68 0 122.5 52 q54.5 52 82.5 140 q-10 54 -10 141 q0 201 84 340 q-85 47 -178 47 q-75 0 -127.5 -26 q-52.5 -26 -81.5 -75 q-29 -49 -42 -111 q-13 -62 -13 -144 ZM922 532 q181 7 270.5 73 q89.5 66 89.5 149 q0 60 -34.5 95.5 q-34.5 35.5 -90.5 35.5 q-53 0 -94 -21 q-41 -21 -66.5 -54.5 q-25.5 -33.5 -42.5 -81 q-17 -47.5 -24 -95 q-7 -47.5 -8 -101.5 Z" /><glyph glyph-name="ccedilla" unicode="ç" d="M72 485 q0 262 132 410.5 q132 148.5 337 148.5 q177 0 276 -139 l-131 -125 q-27 29 -42 43 q-15 14 -43.5 27.5 q-28.5 13.5 -61.5 13.5 q-30 0 -55 -5 q-25 -5 -56.5 -26 q-31.5 -21 -52.5 -56.5 q-21 -35.5 -36 -102.5 q-15 -67 -15 -158 q0 -92 14.5 -160 q14.5 -68 36.5 -105.5 q22 -37.5 54 -60.5 q32 -23 59.5 -29.5 q27.5 -6.5 60.5 -6.5 q63 0 201 41 l57 -148 q-94 -47 -225 -59 l-19 -84 q83 -6 134 -48 q51 -42 51 -114 q0 -54 -21.5 -92.5 q-21.5 -38.5 -58 -58.5 q-36.5 -20 -76.5 -28.5 q-40 -8.5 -86 -8.5 q-87 0 -176 34 l32 111 q84 -27 132 -27 q102 0 102 64 q0 43 -59 66.5 q-59 23.5 -129 23.5 l41 164 q-193 20 -285 149.5 q-92 129.5 -92 345.5 Z" /><glyph glyph-name="egrave" unicode="è" d="M72 485 q0 265 138 412 q138 147 355 147 q174 0 258 -79.5 q84 -79.5 84 -210.5 q0 -152 -162.5 -259 q-162.5 -107 -425.5 -110 q12 -107 63.5 -169 q51.5 -62 164.5 -62 q53 0 125.5 18 q72.5 18 119.5 36 l46 17 l61 -145 q-7 -4 -20.5 -10 q-13.5 -6 -55 -22.5 q-41.5 -16.5 -84.5 -29 q-43 -12.5 -105 -22.5 q-62 -10 -120 -10 q-227 0 -334.5 132 q-107.5 132 -107.5 367 ZM121 1450 l155 145 l349 -387 l-99 -106 q-10 6 -27.5 17 q-17.5 11 -68 47.5 q-50.5 36.5 -97.5 74.5 q-47 38 -107 95.5 q-60 57.5 -105 113.5 ZM313 532 q93 4 165.5 25.5 q72.5 21.5 113.5 54 q41 32.5 61.5 68.5 q20.5 36 20.5 74 q0 60 -35 95.5 q-35 35.5 -92 35.5 q-64 0 -111 -30.5 q-47 -30.5 -72.5 -84 q-25.5 -53.5 -37 -111.5 q-11.5 -58 -13.5 -127 Z" /><glyph glyph-name="eacute" unicode="é" d="M72 485 q0 265 138 412 q138 147 355 147 q174 0 258 -79.5 q84 -79.5 84 -210.5 q0 -152 -162.5 -259 q-162.5 -107 -425.5 -110 q12 -107 63.5 -169 q51.5 -62 164.5 -62 q53 0 125.5 18 q72.5 18 119.5 36 l46 17 l61 -145 q-7 -4 -20.5 -10 q-13.5 -6 -55 -22.5 q-41.5 -16.5 -84.5 -29 q-43 -12.5 -105 -22.5 q-62 -10 -120 -10 q-227 0 -334.5 132 q-107.5 132 -107.5 367 ZM313 532 q93 4 165.5 25.5 q72.5 21.5 113.5 54 q41 32.5 61.5 68.5 q20.5 36 20.5 74 q0 60 -35 95.5 q-35 35.5 -92 35.5 q-64 0 -111 -30.5 q-47 -30.5 -72.5 -84 q-25.5 -53.5 -37 -111.5 q-11.5 -58 -13.5 -127 ZM410 1208 l348 387 l155 -145 q-72 -89 -172.5 -176 q-100.5 -87 -165.5 -130 l-65 -42 l-100 106 Z" /><glyph glyph-name="ecircumflex" unicode="ê" d="M72 485 q0 265 138 412 q138 147 355 147 q174 0 258 -79.5 q84 -79.5 84 -210.5 q0 -152 -162.5 -259 q-162.5 -107 -425.5 -110 q12 -107 63.5 -169 q51.5 -62 164.5 -62 q53 0 125.5 18 q72.5 18 119.5 36 l46 17 l61 -145 q-7 -4 -20.5 -10 q-13.5 -6 -55 -22.5 q-41.5 -16.5 -84.5 -29 q-43 -12.5 -105 -22.5 q-62 -10 -120 -10 q-227 0 -334.5 132 q-107.5 132 -107.5 367 ZM156 1212 l385 383 l383 -383 l-88 -110 l-8 4 q-7 5 -22.5 15 q-15.5 10 -36 23 q-20.5 13 -47.5 31.5 q-27 18.5 -55 39 q-28 20.5 -61.5 47 q-33.5 26.5 -64.5 53.5 q-125 -107 -295 -212 q-2 -1 -2 -1 l-88 110 ZM313 532 q93 4 165.5 25.5 q72.5 21.5 113.5 54 q41 32.5 61.5 68.5 q20.5 36 20.5 74 q0 60 -35 95.5 q-35 35.5 -92 35.5 q-64 0 -111 -30.5 q-47 -30.5 -72.5 -84 q-25.5 -53.5 -37 -111.5 q-11.5 -58 -13.5 -127 Z" /><glyph glyph-name="edieresis" unicode="ë" d="M72 485 q0 265 138 412 q138 147 355 147 q174 0 258 -79.5 q84 -79.5 84 -210.5 q0 -152 -162.5 -259 q-162.5 -107 -425.5 -110 q12 -107 63.5 -169 q51.5 -62 164.5 -62 q53 0 125.5 18 q72.5 18 119.5 36 l46 17 l61 -145 q-7 -4 -20.5 -10 q-13.5 -6 -55 -22.5 q-41.5 -16.5 -84.5 -29 q-43 -12.5 -105 -22.5 q-62 -10 -120 -10 q-227 0 -334.5 132 q-107.5 132 -107.5 367 ZM193 1329 q0 59 34 96 q34 37 95 37 q58 0 91 -36 q33 -36 33 -93 q0 -58 -34.5 -94.5 q-34.5 -36.5 -96.5 -36.5 q-57 0 -89.5 36 q-32.5 36 -32.5 91 ZM313 532 q93 4 165.5 25.5 q72.5 21.5 113.5 54 q41 32.5 61.5 68.5 q20.5 36 20.5 74 q0 60 -35 95.5 q-35 35.5 -92 35.5 q-64 0 -111 -30.5 q-47 -30.5 -72.5 -84 q-25.5 -53.5 -37 -111.5 q-11.5 -58 -13.5 -127 ZM600 1329 q0 59 34 96 q34 37 97 37 q59 0 92 -36 q33 -36 33 -93 q0 -58 -34.5 -94.5 q-34.5 -36.5 -96.5 -36.5 q-58 0 -91.5 36 q-33.5 36 -33.5 91 Z" /><glyph glyph-name="igrave" unicode="ì" d="M-133 1460 l164 137 l284 -389 l-98 -104 q-21 17 -56.5 48.5 q-35.5 31.5 -128.5 125 q-93 93.5 -165 182.5 ZM102 223 l0 797 l234 0 l0 -776 q0 -45 13.5 -62.5 q13.5 -17.5 43.5 -17.5 l53 4 l25 -148 q-49 -28 -145 -28 q-105 0 -164.5 63.5 q-59.5 63.5 -59.5 167.5 Z" /><glyph glyph-name="iacute" unicode="í" d="M102 223 l0 797 l234 0 l0 -776 q0 -45 13.5 -62.5 q13.5 -17.5 43.5 -17.5 l53 4 l25 -148 q-49 -28 -145 -28 q-105 0 -164.5 63.5 q-59.5 63.5 -59.5 167.5 ZM115 1208 l286 389 l162 -137 q-72 -89 -159.5 -178 q-87.5 -89 -139.5 -134 l-51 -44 l-98 104 Z" /><glyph glyph-name="icircumflex" unicode="î" d="M-131 1206 l348 393 l350 -393 l-96 -102 q-5 4 -31.5 24 q-26.5 20 -53 40.5 q-26.5 20.5 -73.5 60 q-47 39.5 -96 84.5 q-50 -46 -97 -85.5 q-47 -39.5 -70.5 -58 q-23.5 -18.5 -53.5 -40.5 q-30 -22 -33 -25 l-94 102 ZM102 223 l0 797 l234 0 l0 -776 q0 -45 13.5 -62.5 q13.5 -17.5 43.5 -17.5 l53 4 l25 -148 q-49 -28 -145 -28 q-105 0 -164.5 63.5 q-59.5 63.5 -59.5 167.5 Z" /><glyph glyph-name="idieresis" unicode="ï" d="M-72 1317 q0 57 32 92 q32 35 91 35 q56 0 87.5 -33.5 q31.5 -33.5 31.5 -87.5 q0 -56 -32.5 -91.5 q-32.5 -35.5 -92.5 -35.5 q-54 0 -85.5 35 q-31.5 35 -31.5 86 ZM102 223 l0 797 l234 0 l0 -776 q0 -45 13.5 -62.5 q13.5 -17.5 43.5 -17.5 l53 4 l25 -148 q-49 -28 -145 -28 q-105 0 -164.5 63.5 q-59.5 63.5 -59.5 167.5 ZM266 1317 q0 57 32.5 92 q32.5 35 92.5 35 q56 0 87.5 -33.5 q31.5 -33.5 31.5 -87.5 q0 -56 -32.5 -91.5 q-32.5 -35.5 -92.5 -35.5 q-55 0 -87 34.5 q-32 34.5 -32 86.5 Z" /><glyph glyph-name="eth" unicode="ð" d="M72 489 q0 144 49.5 256 q49.5 112 152 179 q102.5 67 244.5 67 q111 0 195 -59 q-39 101 -99 203 l-229 -64 l-41 160 l154 33 l-111 86 l119 143 q118 -72 211 -176 l250 65 l41 -157 l-193 -41 q172 -280 172 -672 q0 -116 -29.5 -212.5 q-29.5 -96.5 -86.5 -168.5 q-57 -72 -146.5 -111.5 q-89.5 -39.5 -204.5 -39.5 q-115 0 -201.5 37.5 q-86.5 37.5 -140 106 q-53.5 68.5 -80 160 q-26.5 91.5 -26.5 205.5 ZM324 508 q0 -356 217 -356 q57 0 96.5 27 q39.5 27 60 76.5 q20.5 49.5 29 106.5 q8.5 57 8.5 130 q0 59 -5.5 106.5 q-5.5 47.5 -20.5 92 q-15 44.5 -38.5 74 q-23.5 29.5 -62.5 47 q-39 17.5 -90 17.5 q-57 0 -96.5 -23.5 q-39.5 -23.5 -60 -69.5 q-20.5 -46 -29 -100.5 q-8.5 -54.5 -8.5 -127.5 Z" /><glyph glyph-name="ntilde" unicode="ñ" d="M51 952 l185 74 q3 -3 8.5 -9 q5.5 -6 20 -27 q14.5 -21 26.5 -44.5 q12 -23.5 25.5 -61.5 q13.5 -38 19.5 -79 q51 117 148.5 174 q97.5 57 215.5 57 q153 0 226 -92 q73 -92 73 -260 l0 -684 l-231 0 l0 662 q0 190 -135 190 q-98 0 -173 -96 q-75 -96 -75 -250 l0 -506 l-233 0 l0 516 q0 91 -10.5 169.5 q-10.5 78.5 -25 125.5 q-14.5 47 -29.5 80.5 q-15 33.5 -25 46.5 l-11 14 ZM322 1206 l0 152 q8 5 22 13 q14 8 56 21 q42 13 83 13 q50 0 157 -20.5 q107 -20.5 157 -20.5 q41 0 82 7 q41 7 61 15 l21 7 l0 -152 q-8 -5 -22.5 -13 q-14.5 -8 -57.5 -21 q-43 -13 -84 -13 q-50 0 -157 20.5 q-107 20.5 -157 20.5 q-41 0 -81 -7.5 q-40 -7.5 -60 -14.5 l-20 -7 Z" /><glyph glyph-name="ograve" unicode="ò" d="M72 500 q0 158 50.5 278.5 q50.5 120.5 157.5 193 q107 72.5 259 72.5 q229 0 338.5 -135 q109.5 -135 109.5 -387 q0 -117 -29.5 -214.5 q-29.5 -97.5 -86 -171 q-56.5 -73.5 -146.5 -115 q-90 -41.5 -205 -41.5 q-229 0 -338.5 134.5 q-109.5 134.5 -109.5 385.5 ZM121 1450 l155 145 l349 -387 l-99 -106 q-10 6 -27.5 17 q-17.5 11 -68 47.5 q-50.5 36.5 -97.5 74.5 q-47 38 -107 95.5 q-60 57.5 -105 113.5 ZM324 520 q0 -82 9.5 -144 q9.5 -62 32.5 -115 q23 -53 67 -81 q44 -28 108 -28 q57 0 96.5 26 q39.5 26 60 76 q20.5 50 29 109 q8.5 59 8.5 139 q0 83 -9.5 145.5 q-9.5 62.5 -32.5 115.5 q-23 53 -67 81 q-44 28 -108 28 q-57 0 -96.5 -26 q-39.5 -26 -60 -76.5 q-20.5 -50.5 -29 -110 q-8.5 -59.5 -8.5 -139.5 Z" /><glyph glyph-name="oacute" unicode="ó" d="M72 500 q0 158 50.5 278.5 q50.5 120.5 157.5 193 q107 72.5 259 72.5 q229 0 338.5 -135 q109.5 -135 109.5 -387 q0 -117 -29.5 -214.5 q-29.5 -97.5 -86 -171 q-56.5 -73.5 -146.5 -115 q-90 -41.5 -205 -41.5 q-229 0 -338.5 134.5 q-109.5 134.5 -109.5 385.5 ZM324 520 q0 -82 9.5 -144 q9.5 -62 32.5 -115 q23 -53 67 -81 q44 -28 108 -28 q57 0 96.5 26 q39.5 26 60 76 q20.5 50 29 109 q8.5 59 8.5 139 q0 83 -9.5 145.5 q-9.5 62.5 -32.5 115.5 q-23 53 -67 81 q-44 28 -108 28 q-57 0 -96.5 -26 q-39.5 -26 -60 -76.5 q-20.5 -50.5 -29 -110 q-8.5 -59.5 -8.5 -139.5 ZM410 1208 l348 387 l155 -145 q-72 -89 -172.5 -176 q-100.5 -87 -165.5 -130 l-65 -42 l-100 106 Z" /><glyph glyph-name="ocircumflex" unicode="ô" d="M72 500 q0 158 50.5 278.5 q50.5 120.5 157.5 193 q107 72.5 259 72.5 q229 0 338.5 -135 q109.5 -135 109.5 -387 q0 -117 -29.5 -214.5 q-29.5 -97.5 -86 -171 q-56.5 -73.5 -146.5 -115 q-90 -41.5 -205 -41.5 q-229 0 -338.5 134.5 q-109.5 134.5 -109.5 385.5 ZM156 1212 l385 383 l383 -383 l-88 -110 l-8 4 q-7 5 -22.5 15 q-15.5 10 -36 23 q-20.5 13 -47.5 31.5 q-27 18.5 -55 39 q-28 20.5 -61.5 47 q-33.5 26.5 -64.5 53.5 q-125 -107 -295 -212 q-2 -1 -2 -1 l-88 110 ZM324 520 q0 -82 9.5 -144 q9.5 -62 32.5 -115 q23 -53 67 -81 q44 -28 108 -28 q57 0 96.5 26 q39.5 26 60 76 q20.5 50 29 109 q8.5 59 8.5 139 q0 83 -9.5 145.5 q-9.5 62.5 -32.5 115.5 q-23 53 -67 81 q-44 28 -108 28 q-57 0 -96.5 -26 q-39.5 -26 -60 -76.5 q-20.5 -50.5 -29 -110 q-8.5 -59.5 -8.5 -139.5 Z" /><glyph glyph-name="otilde" unicode="õ" d="M72 500 q0 158 50.5 278.5 q50.5 120.5 157.5 193 q107 72.5 259 72.5 q229 0 338.5 -135 q109.5 -135 109.5 -387 q0 -117 -29.5 -214.5 q-29.5 -97.5 -86 -171 q-56.5 -73.5 -146.5 -115 q-90 -41.5 -205 -41.5 q-229 0 -338.5 134.5 q-109.5 134.5 -109.5 385.5 ZM195 1206 l0 152 q8 5 22 13 q14 8 56 21 q42 13 83 13 q50 0 157 -20.5 q107 -20.5 157 -20.5 q41 0 82 7 q41 7 62 15 l20 7 l0 -152 q-8 -5 -22.5 -13 q-14.5 -8 -57.5 -21 q-43 -13 -84 -13 q-50 0 -157 20.5 q-107 20.5 -157 20.5 q-41 0 -81 -7.5 q-40 -7.5 -60 -14.5 l-20 -7 ZM324 520 q0 -82 9.5 -144 q9.5 -62 32.5 -115 q23 -53 67 -81 q44 -28 108 -28 q57 0 96.5 26 q39.5 26 60 76 q20.5 50 29 109 q8.5 59 8.5 139 q0 83 -9.5 145.5 q-9.5 62.5 -32.5 115.5 q-23 53 -67 81 q-44 28 -108 28 q-57 0 -96.5 -26 q-39.5 -26 -60 -76.5 q-20.5 -50.5 -29 -110 q-8.5 -59.5 -8.5 -139.5 Z" /><glyph glyph-name="odieresis" unicode="ö" d="M72 500 q0 158 50.5 278.5 q50.5 120.5 157.5 193 q107 72.5 259 72.5 q229 0 338.5 -135 q109.5 -135 109.5 -387 q0 -117 -29.5 -214.5 q-29.5 -97.5 -86 -171 q-56.5 -73.5 -146.5 -115 q-90 -41.5 -205 -41.5 q-229 0 -338.5 134.5 q-109.5 134.5 -109.5 385.5 ZM193 1329 q0 59 34 96 q34 37 95 37 q58 0 91 -36 q33 -36 33 -93 q0 -58 -34.5 -94.5 q-34.5 -36.5 -96.5 -36.5 q-57 0 -89.5 36 q-32.5 36 -32.5 91 ZM324 520 q0 -82 9.5 -144 q9.5 -62 32.5 -115 q23 -53 67 -81 q44 -28 108 -28 q57 0 96.5 26 q39.5 26 60 76 q20.5 50 29 109 q8.5 59 8.5 139 q0 83 -9.5 145.5 q-9.5 62.5 -32.5 115.5 q-23 53 -67 81 q-44 28 -108 28 q-57 0 -96.5 -26 q-39.5 -26 -60 -76.5 q-20.5 -50.5 -29 -110 q-8.5 -59.5 -8.5 -139.5 ZM600 1329 q0 59 34 96 q34 37 97 37 q59 0 92 -36 q33 -36 33 -93 q0 -58 -34.5 -94.5 q-34.5 -36.5 -96.5 -36.5 q-58 0 -91.5 36 q-33.5 36 -33.5 91 Z" /><glyph glyph-name="divide" unicode="÷" d="M123 526 l0 183 l801 0 l0 -183 l-801 0 ZM397 272 q0 57 32.5 93 q32.5 36 92.5 36 q56 0 87.5 -33.5 q31.5 -33.5 31.5 -88.5 q0 -56 -32.5 -91.5 q-32.5 -35.5 -92.5 -35.5 q-55 0 -87 34.5 q-32 34.5 -32 85.5 ZM397 946 q0 57 32.5 93 q32.5 36 92.5 36 q56 0 87.5 -34 q31.5 -34 31.5 -89 q0 -56 -32.5 -91.5 q-32.5 -35.5 -92.5 -35.5 q-55 0 -87 34.5 q-32 34.5 -32 86.5 Z" /><glyph glyph-name="oslash" unicode="ø" d="M72 500 q0 158 50.5 278.5 q50.5 120.5 157.5 193 q107 72.5 259 72.5 q76 0 145 -16 l51 105 l158 -72 l-55 -113 q149 -131 149 -426 q0 -117 -29.5 -214.5 q-29.5 -97.5 -86 -171 q-56.5 -73.5 -146.5 -115 q-90 -41.5 -205 -41.5 q-76 0 -145 16 l-51 -107 l-160 72 l55 115 q-147 129 -147 424 ZM324 520 q0 -121 18 -192 l258 528 q-37 16 -82 16 q-57 0 -96.5 -26 q-39.5 -26 -60 -76.5 q-20.5 -50.5 -29 -110 q-8.5 -59.5 -8.5 -139.5 ZM459 166 q32 -14 82 -14 q57 0 96.5 26 q39.5 26 60 76 q20.5 50 29 109 q8.5 59 8.5 139 q0 113 -20 194 l-256 -530 Z" /><glyph glyph-name="ugrave" unicode="ù" d="M123 340 l0 680 l233 0 l0 -676 q0 -184 136 -184 q96 0 171.5 102 q75.5 102 75.5 258 l0 500 l234 0 l0 -526 q0 -91 10 -169 q10 -78 24.5 -125.5 q14.5 -47.5 29 -81.5 q14.5 -34 24.5 -48 l10 -13 l-182 -73 q-3 3 -9 9 q-6 6 -21.5 27.5 q-15.5 21.5 -28.5 46 q-13 24.5 -26 63.5 q-13 39 -18 81 q-53 -114 -150 -168.5 q-97 -54.5 -214 -54.5 q-299 0 -299 352 ZM150 1450 l155 145 l348 -387 l-98 -106 q-10 6 -27.5 17 q-17.5 11 -68 47.5 q-50.5 36.5 -97.5 74.5 q-47 38 -107 95.5 q-60 57.5 -105 113.5 Z" /><glyph glyph-name="uacute" unicode="ú" d="M123 340 l0 680 l233 0 l0 -676 q0 -184 136 -184 q96 0 171.5 102 q75.5 102 75.5 258 l0 500 l234 0 l0 -526 q0 -91 10 -169 q10 -78 24.5 -125.5 q14.5 -47.5 29 -81.5 q14.5 -34 24.5 -48 l10 -13 l-182 -73 q-3 3 -9 9 q-6 6 -21.5 27.5 q-15.5 21.5 -28.5 46 q-13 24.5 -26 63.5 q-13 39 -18 81 q-53 -114 -150 -168.5 q-97 -54.5 -214 -54.5 q-299 0 -299 352 ZM438 1208 l348 387 l156 -145 q-72 -89 -173 -176 q-101 -87 -165 -130 l-65 -42 l-101 106 Z" /><glyph glyph-name="ucircumflex" unicode="û" d="M123 340 l0 680 l233 0 l0 -676 q0 -184 136 -184 q96 0 171.5 102 q75.5 102 75.5 258 l0 500 l234 0 l0 -526 q0 -91 10 -169 q10 -78 24.5 -125.5 q14.5 -47.5 29 -81.5 q14.5 -34 24.5 -48 l10 -13 l-182 -73 q-3 3 -9 9 q-6 6 -21.5 27.5 q-15.5 21.5 -28.5 46 q-13 24.5 -26 63.5 q-13 39 -18 81 q-53 -114 -150 -168.5 q-97 -54.5 -214 -54.5 q-299 0 -299 352 ZM186 1212 l385 383 l383 -383 l-88 -110 l-8 4 q-7 5 -22.5 15 q-15.5 10 -36 23 q-20.5 13 -47.5 31.5 q-27 18.5 -55 39 q-28 20.5 -61.5 47 q-33.5 26.5 -64.5 53.5 q-125 -107 -295 -212 q-2 -1 -2 -1 l-88 110 Z" /><glyph glyph-name="udieresis" unicode="ü" d="M123 340 l0 680 l233 0 l0 -676 q0 -184 136 -184 q96 0 171.5 102 q75.5 102 75.5 258 l0 500 l234 0 l0 -526 q0 -91 10 -169 q10 -78 24.5 -125.5 q14.5 -47.5 29 -81.5 q14.5 -34 24.5 -48 l10 -13 l-182 -73 q-3 3 -9 9 q-6 6 -21.5 27.5 q-15.5 21.5 -28.5 46 q-13 24.5 -26 63.5 q-13 39 -18 81 q-53 -114 -150 -168.5 q-97 -54.5 -214 -54.5 q-299 0 -299 352 ZM223 1329 q0 59 34 96 q34 37 95 37 q59 0 92 -36 q33 -36 33 -93 q0 -58 -34.5 -94.5 q-34.5 -36.5 -96.5 -36.5 q-57 0 -90 36.5 q-33 36.5 -33 90.5 ZM631 1329 q0 59 34 96 q34 37 97 37 q59 0 92 -36 q33 -36 33 -93 q0 -58 -34.5 -94.5 q-34.5 -36.5 -96.5 -36.5 q-58 0 -91.5 36 q-33.5 36 -33.5 91 Z" /><glyph glyph-name="yacute" unicode="ý" d="M123 340 l0 680 l233 0 l0 -674 q0 -184 136 -184 q86 0 165.5 89 q79.5 89 79.5 214 l0 555 l240 0 l-10 -606 q-1 -83 30 -215 q31 -132 31 -213 q0 -211 -109 -320.5 q-109 -109.5 -301 -109.5 q-107 0 -221.5 32 q-114.5 32 -152.5 54 l57 178 l23 -10 q24 -9 28.5 -10.5 q4.5 -1.5 27 -10 q22.5 -8.5 30.5 -11 q8 -2.5 29 -9.5 q21 -7 32.5 -10 q11.5 -3 30.5 -7.5 q19 -4.5 33 -6.5 q14 -2 31 -3.5 q17 -1.5 32 -1.5 q109 0 163 66.5 q54 66.5 54 179.5 q0 99 -41 202 q-54 -102 -147.5 -151 q-93.5 -49 -204.5 -49 q-299 0 -299 352 ZM432 1208 l348 387 l156 -145 q-72 -89 -173 -176 q-101 -87 -166 -130 l-65 -42 l-100 106 Z" /><glyph glyph-name="thorn" unicode="þ" d="M133 -453 l0 1897 l234 41 l0 -590 q79 141 274 141 q187 0 282 -135.5 q95 -135.5 95 -372.5 q0 -235 -136.5 -387.5 q-136.5 -152.5 -353.5 -152.5 q-55 0 -161 12 l0 -412 l-234 -41 ZM367 172 q83 -20 135 -20 q75 0 127.5 26 q52.5 26 81.5 75 q29 49 42 111 q13 62 13 144 q0 66 -2.5 111.5 q-2.5 45.5 -12 97 q-9.5 51.5 -26.5 82 q-17 30.5 -48 51 q-31 20.5 -75 20.5 q-65 0 -119.5 -55.5 q-54.5 -55.5 -85 -145 q-30.5 -89.5 -30.5 -188.5 l0 -309 Z" /><glyph glyph-name="ydieresis" unicode="ÿ" d="M123 340 l0 680 l233 0 l0 -674 q0 -184 136 -184 q86 0 165.5 89 q79.5 89 79.5 214 l0 555 l240 0 l-10 -606 q-1 -83 30 -215 q31 -132 31 -213 q0 -211 -109 -320.5 q-109 -109.5 -301 -109.5 q-107 0 -221.5 32 q-114.5 32 -152.5 54 l57 178 l23 -10 q24 -9 28.5 -10.5 q4.5 -1.5 27 -10 q22.5 -8.5 30.5 -11 q8 -2.5 29 -9.5 q21 -7 32.5 -10 q11.5 -3 30.5 -7.5 q19 -4.5 33 -6.5 q14 -2 31 -3.5 q17 -1.5 32 -1.5 q109 0 163 66.5 q54 66.5 54 179.5 q0 99 -41 202 q-54 -102 -147.5 -151 q-93.5 -49 -204.5 -49 q-299 0 -299 352 ZM215 1329 q0 59 34 96 q34 37 95 37 q59 0 92 -36 q33 -36 33 -93 q0 -58 -34.5 -94.5 q-34.5 -36.5 -96.5 -36.5 q-57 0 -90 36.5 q-33 36.5 -33 90.5 ZM623 1329 q0 59 34 96 q34 37 97 37 q59 0 92 -36 q33 -36 33 -93 q0 -58 -34.5 -94.5 q-34.5 -36.5 -96.5 -36.5 q-58 0 -91.5 36 q-33.5 36 -33.5 91 Z" /><glyph glyph-name="OE" unicode="&#x152;" d="M92 676 q0 163 36.5 295 q36.5 132 109.5 229.5 q73 97.5 190 151 q117 53.5 270 53.5 q94 0 168 -19 l801 0 l0 -184 l-582 0 l0 -387 l480 0 l-31 -186 l-449 0 l0 -445 l613 0 l0 -184 l-856 0 q-118 -12 -170 -12 q-580 0 -580 688 ZM356 698 q0 -89 8.5 -161 q8.5 -72 31.5 -141.5 q23 -69.5 60.5 -116 q37.5 -46.5 99.5 -75 q62 -28.5 144 -28.5 q42 0 144 12 l0 1002 q-83 27 -174 27 q-314 0 -314 -519 Z" /><glyph glyph-name="oe" unicode="&#x153;" d="M72 500 q0 158 50.5 278.5 q50.5 120.5 157.5 193 q107 72.5 259 72.5 q219 0 338 -159 q137 159 358 159 q173 0 256.5 -79.5 q83.5 -79.5 83.5 -210.5 q0 -152 -162 -259 q-162 -107 -426 -110 q6 -51 19 -90 q13 -39 38.5 -72.5 q25.5 -33.5 68 -51 q42.5 -17.5 101.5 -17.5 q53 0 125.5 18 q72.5 18 118.5 36 l47 17 l62 -145 q-7 -4 -20.5 -10 q-13.5 -6 -55 -22.5 q-41.5 -16.5 -84.5 -29 q-43 -12.5 -104.5 -22.5 q-61.5 -10 -118.5 -10 q-220 0 -336 145 q-125 -151 -328 -151 q-229 0 -338.5 134.5 q-109.5 134.5 -109.5 385.5 ZM324 520 q0 -82 9.5 -144 q9.5 -62 32.5 -115 q23 -53 67 -81 q44 -28 108 -28 q57 0 96.5 26 q39.5 26 60 76 q20.5 50 29 109 q8.5 59 8.5 139 q0 83 -9.5 145.5 q-9.5 62.5 -32.5 115.5 q-23 53 -67 81 q-44 28 -108 28 q-57 0 -96.5 -26 q-39.5 -26 -60 -76.5 q-20.5 -50.5 -29 -110 q-8.5 -59.5 -8.5 -139.5 ZM983 532 q93 4 165 25.5 q72 21.5 113 54 q41 32.5 61.5 68.5 q20.5 36 20.5 74 q0 59 -35 95 q-35 36 -91 36 q-64 0 -111 -30.5 q-47 -30.5 -72.5 -84 q-25.5 -53.5 -37 -111.5 q-11.5 -58 -13.5 -127 Z" /><glyph glyph-name="Ydieresis" unicode="&#x178;" d="M0 1386 l264 0 l291 -628 l297 628 l258 0 l-436 -866 l0 -520 l-244 0 l0 530 l-430 856 ZM223 1657 q0 59 34 96 q34 37 95 37 q59 0 92 -36 q33 -36 33 -93 q0 -58 -34.5 -94.5 q-34.5 -36.5 -96.5 -36.5 q-57 0 -90 36.5 q-33 36.5 -33 90.5 ZM631 1657 q0 59 34 96 q34 37 97 37 q59 0 92 -36 q33 -36 33 -93 q0 -58 -34.5 -94.5 q-34.5 -36.5 -96.5 -36.5 q-58 0 -91.5 36 q-33.5 36 -33.5 91 Z" /><glyph glyph-name="circumflex" unicode="&#x2c6;" d="M143 1212 l385 383 l383 -383 l-88 -110 l-7 4 q-8 5 -23.5 15 q-15.5 10 -36 23 q-20.5 13 -47.5 31.5 q-27 18.5 -55 39 q-28 20.5 -61.5 47 q-33.5 26.5 -64.5 53.5 q-125 -107 -295 -212 q-2 -1 -2 -1 l-88 110 Z" /><glyph glyph-name="tilde" unicode="&#x2dc;" d="M193 1206 l0 152 q8 5 22 13 q14 8 56 21 q42 13 83 13 q50 0 157 -20.5 q107 -20.5 157 -20.5 q41 0 81.5 7 q40.5 7 60.5 15 l21 7 l0 -152 q-8 -5 -22.5 -13 q-14.5 -8 -57 -21 q-42.5 -13 -83.5 -13 q-50 0 -157 20.5 q-107 20.5 -157 20.5 q-41 0 -81 -7.5 q-40 -7.5 -60 -14.5 l-20 -7 Z" /><glyph glyph-name="uni2000" unicode="&#x2000;" d="" /><glyph glyph-name="uni2001" unicode="&#x2001;" d="" /><glyph glyph-name="uni2002" unicode="&#x2002;" d="" /><glyph glyph-name="uni2003" unicode="&#x2003;" d="" /><glyph glyph-name="uni2004" unicode="&#x2004;" d="" /><glyph glyph-name="uni2005" unicode="&#x2005;" d="" /><glyph glyph-name="uni2006" unicode="&#x2006;" d="" /><glyph glyph-name="uni2007" unicode="&#x2007;" d="" /><glyph glyph-name="uni2008" unicode="&#x2008;" d="" /><glyph glyph-name="uni2009" unicode="&#x2009;" d="" /><glyph glyph-name="uni200A" unicode="&#x200a;" d="" /><glyph glyph-name="uni2010" unicode="&#x2010;" d="M102 569 l0 170 l580 0 l0 -170 l-580 0 Z" /><glyph glyph-name="uni2011" unicode="&#x2011;" d="M102 569 l0 170 l580 0 l0 -170 l-580 0 Z" /><glyph glyph-name="figuredash" unicode="&#x2012;" d="M102 569 l0 170 l580 0 l0 -170 l-580 0 Z" /><glyph glyph-name="endash" unicode="&#x2013;" d="M0 569 l0 170 l1024 0 l0 -170 l-1024 0 Z" /><glyph glyph-name="emdash" unicode="&#x2014;" d="M0 569 l0 170 l1430 0 l0 -170 l-1430 0 Z" /><glyph glyph-name="quoteleft" unicode="&#x2018;" d="M41 1040 q0 154 79.5 265.5 q79.5 111.5 201.5 173.5 l88 -119 q-138 -99 -138 -234 q0 -45 19 -112.5 q19 -67.5 20 -87.5 q-37 -37 -133 -37 q-68 0 -102.5 41 q-34.5 41 -34.5 110 Z" /><glyph glyph-name="quoteright" unicode="&#x2019;" d="M61 1012 q136 100 136 233 q0 45 -19 113 q-19 68 -20 88 q5 5 14.5 11 q9.5 6 43.5 16 q34 10 77 10 q68 0 102.5 -41.5 q34.5 -41.5 34.5 -110.5 q0 -154 -79 -265 q-79 -111 -201 -173 l-89 119 Z" /><glyph glyph-name="quotesinglbase" unicode="&#x201a;" d="M61 -182 q136 100 136 233 q0 45 -19 113 q-19 68 -20 88 q5 5 14.5 11 q9.5 6 43.5 16 q34 10 77 10 q68 0 102.5 -41.5 q34.5 -41.5 34.5 -110.5 q0 -154 -79 -265 q-79 -111 -201 -173 l-89 119 Z" /><glyph glyph-name="quotedblleft" unicode="&#x201c;" d="M41 1040 q0 154 79.5 265.5 q79.5 111.5 201.5 173.5 l88 -119 q-138 -99 -138 -234 q0 -45 19 -112.5 q19 -67.5 20 -87.5 q-37 -37 -133 -37 q-68 0 -102.5 41 q-34.5 41 -34.5 110 ZM449 1040 q0 154 80 265.5 q80 111.5 202 173.5 l86 -119 q-135 -99 -135 -234 q0 -45 19 -112.5 q19 -67.5 20 -87.5 q-5 -5 -14.5 -11 q-9.5 -6 -43 -16 q-33.5 -10 -75.5 -10 q-69 0 -104 41 q-35 41 -35 110 Z" /><glyph glyph-name="quotedblright" unicode="&#x201d;" d="M61 1018 q136 100 136 233 q0 45 -19 113 q-19 68 -20 88 q5 5 14.5 11 q9.5 6 43.5 16 q34 10 77 10 q68 0 102.5 -41.5 q34.5 -41.5 34.5 -110.5 q0 -154 -79 -265 q-79 -111 -201 -173 l-89 119 ZM471 1018 q135 99 135 233 q0 45 -19 113 q-19 68 -20 88 q5 5 14.5 11 q9.5 6 43 16 q33.5 10 75.5 10 q69 0 104.5 -41.5 q35.5 -41.5 35.5 -110.5 q0 -154 -80.5 -265 q-80.5 -111 -202.5 -173 l-86 119 Z" /><glyph glyph-name="quotedblbase" unicode="&#x201e;" d="M61 -182 q136 100 136 233 q0 45 -19 113 q-19 68 -20 88 q5 5 14.5 11 q9.5 6 43.5 16 q34 10 77 10 q68 0 102.5 -41.5 q34.5 -41.5 34.5 -110.5 q0 -154 -79 -265 q-79 -111 -201 -173 l-89 119 ZM471 -182 q135 99 135 233 q0 45 -19 113 q-19 68 -20 88 q5 5 14.5 11 q9.5 6 43 16 q33.5 10 75.5 10 q69 0 104.5 -41.5 q35.5 -41.5 35.5 -110.5 q0 -154 -80.5 -265 q-80.5 -111 -202.5 -173 l-86 119 Z" /><glyph glyph-name="bullet" unicode="&#x2022;" d="M162 487.5 q-60 59.5 -60 159.5 q0 100 60 159.5 q60 59.5 160 59.5 q100 0 159.5 -59.5 q59.5 -59.5 59.5 -159.5 q0 -100 -59.5 -159.5 q-59.5 -59.5 -159.5 -59.5 q-100 0 -160 59.5 Z" /><glyph glyph-name="uni202F" unicode="&#x202f;" d="" /><glyph glyph-name="guilsinglleft" unicode="&#x2039;" d="M102 502 q70 89 180.5 200 q110.5 111 185.5 178 l75 66 l96 -110 l-266 -334 l266 -334 l-96 -111 q-32 27 -83 73 q-51 46 -169.5 164.5 q-118.5 118.5 -188.5 207.5 Z" /><glyph glyph-name="guilsinglright" unicode="&#x203a;" d="M72 168 l266 334 l-266 334 l98 110 q31 -27 82 -73 q51 -46 168.5 -164 q117.5 -118 187.5 -207 q-70 -89 -179.5 -200.5 q-109.5 -111.5 -184.5 -177.5 l-74 -67 l-98 111 Z" /><glyph glyph-name="uni205F" unicode="&#x205f;" d="" /><glyph glyph-name="Euro" unicode="&#x20ac;" d="M72 381 l0 180 l98 0 q-2 23 -2 72 q0 35 2 53 l-98 0 l0 182 l123 0 q52 207 189 328 q137 121 329 121 q193 0 307 -139 l-117 -146 q-92 103 -215 103 q-87 0 -150.5 -72.5 q-63.5 -72.5 -93.5 -194.5 l443 0 l-31 -182 l-436 0 q0 -4 -1 -21 q-1 -17 -1 -32 q0 -29 6 -72 l422 0 l-31 -180 l-356 0 q77 -211 248 -211 q41 0 86 7.5 q45 7.5 74.5 16.5 q29.5 9 55.5 17.5 q26 8.5 29 9.5 l52 -168 l-4 -1 q-4 -2 -14.5 -6 q-10.5 -4 -24 -9 q-13.5 -5 -33 -10.5 q-19.5 -5.5 -40.5 -11 q-21 -5.5 -47.5 -10.5 q-26.5 -5 -53.5 -8.5 q-27 -3.5 -59 -6 q-32 -2.5 -64 -2.5 q-172 0 -295.5 101 q-123.5 101 -173.5 292 l-123 0 Z" /><glyph glyph-name="uni25FC" unicode="&#x25fc;" d="M0 0 l0 1024 l1024 0 l0 -1024 l-1024 0 Z" /></font>
</defs>
</svg>
